<svg width="71" height="84" viewBox="0 0 71 84" fill="none" xmlns="http://www.w3.org/2000/svg">
<path d="M66.7267 15.609C66.4142 15.1779 66.0802 14.764 65.7263 14.3691C66.0823 13.383 66.3528 12.3657 66.5343 11.3294C67.0705 7.53865 66.6049 3.66767 65.1876 0.130701C65.1876 0.130701 60.8779 -1.26914 50.9889 5.65008C46.7905 4.44516 42.4539 3.83967 38.0985 3.85028C33.7305 3.84233 29.3816 4.44774 25.1696 5.65008C15.2805 -1.34913 10.9709 0.130701 10.9709 0.130701C9.57063 3.63027 9.10534 7.45785 9.62411 11.2095C9.8067 12.2888 10.0902 13.347 10.4706 14.3691C10.1243 14.769 9.77803 15.209 9.4702 15.609C6.59877 19.3526 5.07456 24.0206 5.16057 28.8075C5.15144 29.9428 5.20282 31.0777 5.31448 32.2071C6.54557 49.9251 17.8971 54.0446 28.7096 55.3245C27.1792 56.8036 26.1414 58.7507 25.7467 60.8838C25.3891 62.3064 25.2208 63.7733 25.2465 65.2434V70.481C20.9437 70.8785 16.5254 70.2277 15.1566 66.2362C13.6852 62.4167 11.2459 59.0829 8.09781 56.5888C7.86903 56.4588 7.65146 56.3085 7.44752 56.1397C7.17107 55.3839 6.68104 54.7328 6.04187 54.272C5.40269 53.8112 4.64431 53.5623 3.86645 53.5579H3.84794C2.83055 53.5575 1.85446 53.9761 1.1333 54.722C0.412142 55.468 0.00466411 56.4805 5.3802e-05 57.5379C-0.0149529 60.7876 3.11334 62.885 4.39657 63.5997C5.89313 65.167 7.09715 67.0092 7.94759 69.0327C9.34922 73.126 13.447 79.344 25.1315 78.5357C25.1354 78.6762 25.1392 78.809 25.141 78.9301L25.1579 80.0003C25.1577 80.5256 25.2572 81.0457 25.4505 81.5311C25.6438 82.0164 25.9273 82.4573 26.2846 82.8288C26.6419 83.2002 27.0662 83.4948 27.5331 83.6957C28 83.8967 28.5004 84 29.0058 83.9999L29.0177 83.9974L47.1456 84C47.6509 84.0001 48.1513 83.8968 48.6182 83.6958C49.0851 83.4949 49.5094 83.2003 49.8667 82.8289C50.2241 82.4575 50.5075 82.0165 50.7008 81.5312C50.8941 81.0459 50.9936 80.5257 50.9934 80.0005C50.9934 80.0005 51.0216 67.3632 51.0216 65.2436C51.0473 63.7735 50.879 62.3066 50.5214 60.884L50.5144 60.8596L50.5273 60.884C50.4942 60.7441 50.4437 60.63 50.4075 60.4942C49.978 58.513 48.9853 56.7118 47.5583 55.3244L47.603 55.4079C47.5766 55.3833 47.552 55.3484 47.5257 55.3244C58.3382 54.0446 69.6125 49.8451 70.8439 32.207C70.9555 31.0777 71.0069 29.9427 70.9978 28.8074C71.0659 24.0301 69.5587 19.3724 66.7267 15.609Z" fill="#FFEAE6"/>
</svg>
