<svg width="92" height="96" viewBox="0 0 92 96" fill="none" xmlns="http://www.w3.org/2000/svg">
<path fill-rule="evenodd" clip-rule="evenodd" d="M28.6156 4.264C33.1134 4.04888 34.5471 4 46 4C57.4552 4 58.8866 4.05132 63.3819 4.264C67.8727 4.47668 70.9393 5.22224 73.6215 6.31C76.4348 7.41524 78.9832 9.14696 81.0896 11.3847C83.2343 13.5824 84.8942 16.2418 85.9529 19.1776C86.9952 21.9764 87.7075 25.1762 87.9137 29.8598C88.1199 34.5531 88.1667 36.0491 88.1667 48C88.1667 59.9508 88.1176 61.4468 87.9137 66.1404C87.7098 70.8236 86.9952 74.0236 85.9529 76.8224C84.8754 79.7144 83.4321 82.1708 81.0896 84.6152C78.9836 86.8532 76.4348 88.5852 73.6215 89.69C70.9393 90.7776 67.8727 91.5208 63.3846 91.736C58.8866 91.9512 57.4529 92 46 92C34.5471 92 33.1134 91.9488 28.6156 91.736C24.1273 91.5232 21.0608 90.7776 18.3785 89.69C15.6072 88.5656 13.2529 87.0596 10.9104 84.6152C8.76549 82.4176 7.10581 79.758 6.04712 76.8224C5.00469 74.0236 4.29253 70.8236 4.08637 66.1404C3.88022 61.4468 3.83337 59.9532 3.83337 48C3.83337 36.0467 3.88256 34.5531 4.08637 29.8622C4.29019 25.1762 5.00469 21.9764 6.04712 19.1776C7.10631 16.242 8.76588 13.5827 10.9104 11.3847C13.0165 9.14656 15.5651 7.41472 18.3785 6.31C21.0608 5.22224 24.1273 4.47912 28.6156 4.264ZM63.04 12.184C58.5937 11.9738 57.2585 11.9273 46 11.9273C34.7415 11.9273 33.4063 11.9738 28.96 12.184C24.8488 12.3796 22.6163 13.0958 21.1311 13.6996C19.1633 14.4964 17.7577 15.4498 16.2819 16.9898C14.8084 18.5298 13.8925 19.9964 13.1288 22.0498C12.5501 23.5996 11.8638 25.9291 11.6764 30.2191C11.4749 34.8587 11.4304 36.252 11.4304 48C11.4304 59.748 11.4749 61.1412 11.6764 65.7808C11.8638 70.0708 12.5501 72.4004 13.1288 73.9504C13.8043 75.8616 14.8818 77.5904 16.2819 79.0104C17.6423 80.4712 19.2994 81.5956 21.1311 82.3004C22.6163 82.9044 24.8488 83.6204 28.96 83.816C33.4063 84.0264 34.7392 84.0728 46 84.0728C57.2608 84.0728 58.5937 84.0264 63.04 83.816C67.1512 83.6204 69.3838 82.9044 70.8692 82.3004C72.8368 81.5036 74.2425 80.5504 75.7183 79.0104C77.1183 77.5908 78.1958 75.8616 78.8713 73.9504C79.4501 72.4004 80.1363 70.0708 80.3237 65.7808C80.5253 61.1412 80.5698 59.748 80.5698 48C80.5698 36.252 80.5253 34.8587 80.3237 30.2191C80.1363 25.9291 79.4501 23.5996 78.8713 22.0498C78.1077 19.9964 77.1942 18.5298 75.7183 16.9898C74.2425 15.4522 72.8368 14.4964 70.8692 13.6996C69.3838 13.0958 67.1512 12.3796 63.04 12.184ZM40.6161 61.5636C42.3231 62.3016 44.1524 62.6812 46 62.6812C49.7318 62.6812 53.3102 61.1344 55.9487 58.3812C58.5876 55.628 60.0699 51.8936 60.0699 48C60.0699 44.1064 58.5876 40.372 55.9487 37.6187C53.3102 34.8654 49.7318 33.3186 46 33.3186C44.1524 33.3186 42.3231 33.6984 40.6161 34.4362C38.9088 35.174 37.3579 36.2554 36.0514 37.6187C34.7449 38.982 33.7086 40.6004 33.0015 42.3816C32.2945 44.1628 31.9306 46.072 31.9306 48C31.9306 49.928 32.2945 51.8372 33.0015 53.6184C33.7086 55.3996 34.7449 57.018 36.0514 58.3812C37.3579 59.7444 38.9088 60.826 40.6161 61.5636ZM30.6746 32.008C34.7392 27.7667 40.252 25.384 46 25.384C51.7485 25.384 57.2612 27.7667 61.3257 32.008C65.3902 36.2494 67.6737 42.002 67.6737 48C67.6737 53.998 65.3902 59.7504 61.3257 63.992C57.2612 68.2332 51.7485 70.616 46 70.616C40.252 70.616 34.7392 68.2332 30.6746 63.992C26.61 59.7504 24.3265 53.998 24.3265 48C24.3265 42.002 26.61 36.2494 30.6746 32.008ZM72.4796 28.7535C73.4402 27.7509 73.9799 26.3912 73.9799 24.9733C73.9799 23.5554 73.4402 22.1957 72.4796 21.1931C71.5185 20.1906 70.2156 19.6273 68.8567 19.6273C67.4981 19.6273 66.1948 20.1906 65.2342 21.1931C64.2731 22.1957 63.7334 23.5554 63.7334 24.9733C63.7334 26.3912 64.2731 27.7509 65.2342 28.7535C66.1948 29.7561 67.4981 30.3193 68.8567 30.3193C70.2156 30.3193 71.5185 29.7561 72.4796 28.7535Z" fill="#FFEAE6"/>
</svg>
