<svg width="92" height="96" viewBox="0 0 92 96" fill="none" xmlns="http://www.w3.org/2000/svg">
<path d="M23.7705 84H7.08113V27.918H23.7705V84ZM15.4158 20.268C10.0798 20.268 5.75 15.654 5.75 10.086C5.75 4.518 10.0769 0 15.4158 0C20.7546 0 25.0815 4.515 25.0815 10.086C25.0815 15.654 20.7518 20.268 15.4158 20.268ZM86.2328 84H69.5808V56.7C69.5808 50.193 69.4543 41.85 60.904 41.85C52.2273 41.85 50.8961 48.918 50.8961 56.232V84H34.224V27.918H50.2291V35.568H50.462C52.6901 31.161 58.1325 26.511 66.2515 26.511C83.1421 26.511 86.2471 38.118 86.2471 53.193V84H86.2328Z" fill="#FFEAE6"/>
</svg>
