<svg width="100" height="105" viewBox="0 0 100 105" fill="none" xmlns="http://www.w3.org/2000/svg">
<rect width="100" height="104.167" rx="10" fill="#DA897D"/>
<path d="M35.6061 81.25H22.6481V39.5223H35.6061V81.25ZM29.1193 33.8304C24.9763 33.8304 21.6146 30.3973 21.6146 26.2545C21.6146 22.1116 24.9741 18.75 29.1193 18.75C33.2645 18.75 36.624 22.1094 36.624 26.2545C36.624 30.3973 33.2623 33.8304 29.1193 33.8304ZM84.1034 81.25H71.1744V60.9375C71.1744 56.096 71.0761 49.8884 64.4375 49.8884C57.7007 49.8884 56.6671 55.1473 56.6671 60.5893V81.25H43.7225V39.5223H56.1493V45.2143H56.3301C58.0601 41.9353 62.2857 38.4754 68.5895 38.4754C81.7038 38.4754 84.1146 47.1116 84.1146 58.3281V81.25H84.1034Z" fill="black"/>
</svg>
