<svg width="100" height="105" viewBox="0 0 100 105" fill="none" xmlns="http://www.w3.org/2000/svg">
<rect width="100" height="104.167" rx="10" fill="#DA897D"/>
<path d="M10.4166 32.9457C10.4166 28.597 13.9419 25.0718 18.2906 25.0718V25.0718C18.7254 25.0718 19.0779 25.4243 19.0779 25.8592V85.4166V85.4166C14.2944 85.4166 10.4166 81.5388 10.4166 76.7553V32.9457Z" fill="#0D1117"/>
<path d="M88.0699 77.5431C88.0699 81.8917 84.5447 85.417 80.196 85.417V85.417C79.7612 85.417 79.4086 85.0645 79.4086 84.6296L79.4086 29.4028C79.4086 27.0111 81.3475 25.0722 83.7393 25.0722V25.0722C86.131 25.0722 88.0699 27.0111 88.0699 29.4028L88.0699 77.5431Z" fill="#0D1117"/>
<path d="M20.6726 37.6224C16.8228 34.6266 16.0384 29.0076 18.9205 25.0719V25.0719L55.5 53.5379L50.2816 60.664L20.6726 37.6224Z" fill="#0D1117"/>
<path d="M80.4933 25.9293C82.6325 24.2655 85.6642 24.6896 87.2648 26.8765V26.8765C88.5452 28.626 88.1959 31.1233 86.4845 32.4543L49.9797 60.8456L44.7632 53.718L80.4933 25.9293Z" fill="#0D1117"/>
<path d="M16.6666 26C16.6666 25.4477 17.1143 25 17.6666 25H84.4166C84.9689 25 85.4166 25.4477 85.4166 26V27.0833H16.6666V26Z" fill="#0D1117"/>
<path d="M81.25 84.4167C81.25 84.969 80.8023 85.4167 80.25 85.4167L17.6667 85.4167C17.1144 85.4167 16.6667 84.969 16.6667 84.4167V83.3334L81.25 83.3334V84.4167Z" fill="#0D1117"/>
</svg>
