<svg width="100" height="105" viewBox="0 0 100 105" fill="none" xmlns="http://www.w3.org/2000/svg">
<rect width="100" height="104.167" rx="10" fill="#DA897D"/>
<g clip-path="url(#clip0_294_164)">
<path d="M68.0556 18.75H31.9445C27.8949 18.7573 24.0132 20.3693 21.1496 23.2329C18.2861 26.0964 16.6741 29.9781 16.6667 34.0278L16.6667 70.1389C16.6741 74.1885 18.2861 78.0702 21.1496 80.9338C24.0132 83.7973 27.8949 85.4093 31.9445 85.4167H68.0556C72.1053 85.4093 75.987 83.7973 78.8505 80.9338C81.7141 78.0702 83.3261 74.1885 83.3334 70.1389V34.0278C83.3261 29.9781 81.7141 26.0964 78.8505 23.2329C75.987 20.3693 72.1053 18.7573 68.0556 18.75ZM72.2223 63.1944C72.2223 66.1413 71.0517 68.9674 68.9679 71.0512C66.8842 73.1349 64.058 74.3056 61.1112 74.3056H38.889C35.9421 74.3056 33.116 73.1349 31.0322 71.0512C28.9485 68.9674 27.7779 66.1413 27.7779 63.1944V40.9722C27.7779 38.0254 28.9485 35.1992 31.0322 33.1155C33.116 31.0317 35.9421 29.8611 38.889 29.8611H61.1112C64.058 29.8611 66.8842 31.0317 68.9679 33.1155C71.0517 35.1992 72.2223 38.0254 72.2223 40.9722V63.1944Z" fill="black"/>
<path d="M38.8889 52.0833C38.8889 55.0301 40.0595 57.8563 42.1433 59.94C44.227 62.0238 47.0532 63.1944 50 63.1944C52.9469 63.1944 55.773 62.0238 57.8568 59.94C59.9405 57.8563 61.1111 55.0301 61.1111 52.0833C61.1111 49.1364 59.9405 46.3103 57.8568 44.2265C55.773 42.1428 52.9469 40.9722 50 40.9722C47.0532 40.9722 44.227 42.1428 42.1433 44.2265C40.0595 46.3103 38.8889 49.1364 38.8889 52.0833Z" fill="black"/>
<path d="M61.1112 38.1944C61.1112 38.9311 61.4039 39.6377 61.9248 40.1586C62.4457 40.6795 63.1523 40.9722 63.889 40.9722C64.6257 40.9722 65.3322 40.6795 65.8532 40.1586C66.3741 39.6377 66.6668 38.9311 66.6668 38.1944C66.6668 37.4577 66.3741 36.7512 65.8532 36.2302C65.3322 35.7093 64.6257 35.4166 63.889 35.4166C63.1523 35.4166 62.4457 35.7093 61.9248 36.2302C61.4039 36.7512 61.1112 37.4577 61.1112 38.1944Z" fill="black"/>
</g>
<defs>
<clipPath id="clip0_294_164">
<rect width="66.6667" height="66.6667" fill="white" transform="translate(16.6667 18.75)"/>
</clipPath>
</defs>
</svg>
