<svg width="100" height="105" viewBox="0 0 100 105" fill="none" xmlns="http://www.w3.org/2000/svg">
<rect width="100" height="104.167" rx="10" fill="#DA897D"/>
<path d="M81.25 20.833H18.75V83.333H81.25V20.833Z" fill="#010101" stroke="#0D1117"/>
<mask id="path-3-inside-1_294_127" fill="white">
<path d="M22.9167 35.417H40.0635C45.0462 35.417 49.0854 39.4562 49.0854 44.4389V44.4389C49.0854 47.8752 46.2998 50.6609 42.8634 50.6609H22.9167V35.417Z"/>
</mask>
<path d="M22.9167 35.417H40.0635C45.0462 35.417 49.0854 39.4562 49.0854 44.4389V44.4389C49.0854 47.8752 46.2998 50.6609 42.8634 50.6609H22.9167V35.417Z" fill="#DA897D"/>
<path d="M21.9167 34.417H40.6447C45.8587 34.417 50.0854 38.6437 50.0854 43.8577L48.0854 44.4389C48.0854 40.0085 44.4939 36.417 40.0635 36.417H23.9167L21.9167 34.417ZM49.0854 50.6609H22.9167H49.0854ZM21.9167 50.6609V34.417L23.9167 36.417V50.6609H21.9167ZM40.6447 34.417C45.8587 34.417 50.0854 38.6437 50.0854 43.8577V43.8577C50.0854 47.615 47.0396 50.6609 43.2823 50.6609H42.8634C45.7475 50.6609 48.0854 47.8752 48.0854 44.4389C48.0854 40.0085 44.4939 36.417 40.0635 36.417L40.6447 34.417Z" fill="#0D1117" mask="url(#path-3-inside-1_294_127)"/>
<mask id="path-5-inside-2_294_127" fill="white">
<path d="M22.9167 50.6611H42.6915C46.784 50.6611 50.1017 53.9788 50.1017 58.0714V58.0714C50.1017 63.8009 45.457 68.4457 39.7274 68.4457H22.9167V50.6611Z"/>
</mask>
<path d="M22.9167 50.6611H42.6915C46.784 50.6611 50.1017 53.9788 50.1017 58.0714V58.0714C50.1017 63.8009 45.457 68.4457 39.7274 68.4457H22.9167V50.6611Z" fill="#DA897D"/>
<path d="M22.9167 50.6611H50.1017H22.9167ZM51.1017 58.6463C51.1017 64.6106 46.2666 69.4457 40.3023 69.4457H21.9167L23.9167 67.4457H39.7274C44.9047 67.4457 49.1017 63.2487 49.1017 58.0714L51.1017 58.6463ZM21.9167 69.4457V50.6611H23.9167V67.4457L21.9167 69.4457ZM43.1166 50.6611C47.5266 50.6611 51.1017 54.2362 51.1017 58.6463V58.6463C51.1017 64.6106 46.2666 69.4457 40.3023 69.4457L39.7274 67.4457C44.9047 67.4457 49.1017 63.2487 49.1017 58.0714C49.1017 53.9788 46.2317 50.6611 42.6915 50.6611H43.1166Z" fill="#0D1117" mask="url(#path-5-inside-2_294_127)"/>
<path d="M31.0427 54.2129H38.6687C40.916 54.2129 42.7378 56.0347 42.7378 58.282C42.7378 60.5293 40.916 62.3511 38.6687 62.3511H31.0427V54.2129Z" fill="#0D1117" stroke="#0D1117" stroke-width="0.5"/>
<path d="M74.4999 54.9818V57.0253C74.4999 63.0555 69.6051 67.9446 63.5742 67.9446C56.8342 67.9446 51.3638 62.4806 51.3638 55.7413V55.2306C51.3638 48.773 56.5987 43.5381 63.0563 43.5381C69.3764 43.5381 74.4999 48.6616 74.4999 54.9818Z" fill="#DA897D" stroke="#0D1117"/>
<path d="M56.5052 53.917C56.6378 50.7208 59.3008 48.167 62.5324 48.167C65.75 48.167 68.3979 50.7263 68.4971 53.917H56.5052Z" fill="#0D1117" stroke="#0D1117" stroke-width="0.5"/>
<path d="M31.0427 41.2559H38.6687C40.6354 41.2559 42.2297 42.8502 42.2297 44.8168C42.2297 46.7835 40.6354 48.3778 38.6687 48.3778H31.0427V41.2559Z" fill="#0D1117" stroke="#0D1117" stroke-width="0.5"/>
<path d="M56.4453 37.187H69.1648V39.4899H56.4453V37.187Z" stroke="#DA897D"/>
<path d="M56.25 56.25H68.75V56.25C68.75 59.7018 65.9518 62.5 62.5 62.5V62.5C59.0482 62.5 56.25 59.7018 56.25 56.25V56.25Z" fill="#0D1117"/>
<line x1="60.3333" y1="56.833" x2="74.9166" y2="56.833" stroke="#0D1117"/>
</svg>
