<svg width="100" height="105" viewBox="0 0 100 105" fill="none" xmlns="http://www.w3.org/2000/svg">
<rect width="100" height="104.167" rx="10" fill="#DA897D"/>
<path d="M76.77 33.0249C76.5021 32.688 76.2158 32.3647 75.9123 32.0561C76.2176 31.2856 76.4494 30.4908 76.605 29.6811C77.0647 26.7192 76.6656 23.6947 75.4505 20.9311C75.4505 20.9311 71.7561 19.8374 63.2787 25.2436C59.6796 24.3021 55.962 23.8291 52.2283 23.8374C48.4839 23.8311 44.7557 24.3042 41.145 25.2436C32.6676 19.7749 28.9731 20.9311 28.9731 20.9311C27.7728 23.6654 27.3739 26.6561 27.8186 29.5874C27.9751 30.4307 28.2182 31.2575 28.5443 32.0561C28.2474 32.3686 27.9505 32.7124 27.6867 33.0249C25.2251 35.9499 23.9185 39.5972 23.9922 43.3374C23.9844 44.2244 24.0284 45.1112 24.1242 45.9936C25.1795 59.8373 34.9106 63.0561 44.1797 64.0561C42.8677 65.2118 41.9781 66.7332 41.6398 68.3998C41.3332 69.5114 41.1889 70.6575 41.211 71.8061V75.8985C37.5224 76.209 33.7347 75.7005 32.5614 72.5818C31.3 69.5975 29.2089 66.9927 26.5102 65.044C26.314 64.9424 26.1275 64.825 25.9527 64.693C25.7157 64.1025 25.2956 63.5938 24.7477 63.2338C24.1998 62.8737 23.5496 62.6792 22.8828 62.6758H22.867C21.9948 62.6755 21.158 63.0026 20.5398 63.5854C19.9216 64.1682 19.5723 64.9593 19.5683 65.7856C19.5555 68.3246 22.2372 69.9634 23.3373 70.5219C24.6202 71.7465 25.6524 73.1858 26.3814 74.7669C27.5829 77.9651 31.0958 82.8235 41.1124 82.1919C41.1157 82.3017 41.119 82.4055 41.1205 82.5001L41.135 83.3363C41.1348 83.7467 41.2201 84.1531 41.3858 84.5323C41.5516 84.9115 41.7945 85.256 42.1008 85.5462C42.4072 85.8364 42.7709 86.0666 43.1711 86.2236C43.5714 86.3806 44.0004 86.4614 44.4336 86.4613L44.4438 86.4594L59.984 86.4614C60.4172 86.4615 60.8462 86.3807 61.2464 86.2237C61.6467 86.0667 62.0104 85.8365 62.3167 85.5463C62.623 85.2561 62.866 84.9116 63.0317 84.5324C63.1975 84.1532 63.2827 83.7468 63.2826 83.3364C63.2826 83.3364 63.3068 73.4624 63.3068 71.8063C63.3287 70.6576 63.1844 69.5115 62.8779 68.4L62.8719 68.3809L62.883 68.4C62.8546 68.2906 62.8113 68.2015 62.7803 68.0954C62.4121 66.5474 61.5611 65.14 60.3378 64.0561L60.3761 64.1213C60.3535 64.102 60.3324 64.0748 60.3098 64.0561C69.5789 63.0561 79.2439 59.7748 80.2994 45.9936C80.3951 45.1111 80.4392 44.2244 80.4314 43.3373C80.4898 39.6046 79.1977 35.9654 76.77 33.0249Z" fill="black"/>
</svg>
