<svg width="1440" height="2255" viewBox="0 0 1440 2255" fill="none" xmlns="http://www.w3.org/2000/svg">
<g filter="url(#filter0_d_16_49)">
<path d="M1438.38 897.649C1264.45 775.845 1165.54 778.51 990.822 897.649C1159.68 1029.57 1259.23 999.777 1438.38 897.649Z" stroke="#3D1D1D" stroke-opacity="0.1" stroke-width="2"/>
<path d="M1440.58 896.61C1318.68 1070.39 1321.35 1169.23 1440.58 1343.81C1572.61 1175.08 1542.79 1075.62 1440.58 896.61Z" stroke="#3D1D1D" stroke-opacity="0.1" stroke-width="2"/>
<path d="M1437.95 895.172C1479.7 1103.25 1553.12 1169.53 1761.85 1203.78C1730.75 991.869 1638.14 944.79 1437.95 895.172Z" stroke="#3D1D1D" stroke-opacity="0.1" stroke-width="2"/>
<path d="M1436.83 901.657C1393.93 1109.5 1435.62 1199.17 1614.39 1312.15C1668.59 1104.94 1601.72 1025.45 1436.83 901.657Z" stroke="#3D1D1D" stroke-opacity="0.1" stroke-width="2"/>
<path d="M1437.65 899.237C1255.52 1008.4 1217.7 1099.77 1255.5 1307.72C1444.82 1207.29 1458.1 1104.31 1437.65 899.237Z" stroke="#3D1D1D" stroke-opacity="0.1" stroke-width="2"/>
<path d="M1440.29 893.435C1229.94 922.813 1159.4 992.145 1112.88 1198.33C1326.42 1179.8 1378.92 1090.19 1440.29 893.435Z" stroke="#3D1D1D" stroke-opacity="0.1" stroke-width="2"/>
<path d="M1439.69 900.978C1233.28 850.991 1142.16 889.537 1023 1064.17C1228.39 1125.42 1310.19 1061.39 1439.69 900.978Z" stroke="#3D1D1D" stroke-opacity="0.1" stroke-width="2"/>
<path d="M1440.09 900.882C1337.17 715.245 1247.09 674.334 1037.79 704.931C1131.73 897.443 1234.27 914.247 1440.09 900.882Z" stroke="#3D1D1D" stroke-opacity="0.1" stroke-width="2"/>
<path d="M1885.93 897.934C1712.01 776.13 1613.09 778.795 1438.38 897.934C1607.24 1029.85 1706.78 1000.06 1885.93 897.934Z" stroke="#3D1D1D" stroke-opacity="0.1" stroke-width="2"/>
<path d="M1437.29 448C1315.38 621.784 1318.05 720.617 1437.29 895.196C1569.31 726.471 1539.5 627.006 1437.29 448Z" stroke="#3D1D1D" stroke-opacity="0.1" stroke-width="2"/>
<path d="M1111.04 588.27C1154.5 796 1228.46 861.672 1437.47 894.213C1404.63 682.566 1311.63 636.248 1111.04 588.27Z" stroke="#3D1D1D" stroke-opacity="0.1" stroke-width="2"/>
<path d="M1258.97 489.735C1216.08 697.581 1257.77 787.245 1436.53 900.23C1490.73 693.015 1423.87 613.532 1258.97 489.735Z" stroke="#3D1D1D" stroke-opacity="0.1" stroke-width="2"/>
<path d="M1620.66 489.572C1438.52 598.739 1400.7 690.1 1438.51 898.055C1627.83 797.626 1641.11 694.647 1620.66 489.572Z" stroke="#3D1D1D" stroke-opacity="0.1" stroke-width="2"/>
<path d="M1768.94 587.787C1558.6 617.165 1488.06 686.497 1441.53 892.679C1655.08 874.151 1707.57 784.543 1768.94 587.787Z" stroke="#3D1D1D" stroke-opacity="0.1" stroke-width="2"/>
<path d="M1857.82 737.544C1651.4 687.557 1560.29 726.104 1441.13 900.734C1646.52 961.986 1728.32 897.952 1857.82 737.544Z" stroke="#3D1D1D" stroke-opacity="0.1" stroke-width="2"/>
<path d="M1842.31 1101.06C1743.87 913.01 1654.8 869.95 1444.83 895.517C1534.11 1090.23 1636.22 1109.49 1842.31 1101.06Z" stroke="#3D1D1D" stroke-opacity="0.1" stroke-width="2"/>
</g>
<g filter="url(#filter1_d_16_49)">
<path d="M1441.38 1797.65C1267.45 1675.85 1168.54 1678.51 993.822 1797.65C1162.68 1929.57 1262.23 1899.78 1441.38 1797.65Z" stroke="#3D1D1D" stroke-opacity="0.1" stroke-width="2"/>
<path d="M1443.58 1796.61C1321.68 1970.39 1324.35 2069.23 1443.58 2243.81C1575.61 2075.08 1545.79 1975.62 1443.58 1796.61Z" stroke="#3D1D1D" stroke-opacity="0.1" stroke-width="2"/>
<path d="M1440.95 1795.17C1482.7 2003.25 1556.12 2069.53 1764.85 2103.78C1733.75 1891.87 1641.14 1844.79 1440.95 1795.17Z" stroke="#3D1D1D" stroke-opacity="0.1" stroke-width="2"/>
<path d="M1439.83 1801.66C1396.93 2009.5 1438.62 2099.17 1617.39 2212.15C1671.59 2004.94 1604.72 1925.45 1439.83 1801.66Z" stroke="#3D1D1D" stroke-opacity="0.1" stroke-width="2"/>
<path d="M1440.65 1799.24C1258.52 1908.4 1220.7 1999.77 1258.5 2207.72C1447.82 2107.29 1461.1 2004.31 1440.65 1799.24Z" stroke="#3D1D1D" stroke-opacity="0.1" stroke-width="2"/>
<path d="M1443.29 1793.43C1232.94 1822.81 1162.4 1892.15 1115.88 2098.33C1329.42 2079.8 1381.92 1990.19 1443.29 1793.43Z" stroke="#3D1D1D" stroke-opacity="0.1" stroke-width="2"/>
<path d="M1442.69 1800.98C1236.28 1750.99 1145.16 1789.54 1026 1964.17C1231.39 2025.42 1313.19 1961.39 1442.69 1800.98Z" stroke="#3D1D1D" stroke-opacity="0.1" stroke-width="2"/>
<path d="M1443.09 1800.88C1340.17 1615.25 1250.09 1574.33 1040.79 1604.93C1134.73 1797.44 1237.27 1814.25 1443.09 1800.88Z" stroke="#3D1D1D" stroke-opacity="0.1" stroke-width="2"/>
<path d="M1888.93 1797.93C1715.01 1676.13 1616.09 1678.8 1441.38 1797.93C1610.24 1929.85 1709.78 1900.06 1888.93 1797.93Z" stroke="#3D1D1D" stroke-opacity="0.1" stroke-width="2"/>
<path d="M1440.29 1348C1318.38 1521.78 1321.05 1620.62 1440.29 1795.2C1572.31 1626.47 1542.5 1527.01 1440.29 1348Z" stroke="#3D1D1D" stroke-opacity="0.1" stroke-width="2"/>
<path d="M1114.04 1488.27C1157.5 1696 1231.46 1761.67 1440.47 1794.21C1407.63 1582.57 1314.63 1536.25 1114.04 1488.27Z" stroke="#3D1D1D" stroke-opacity="0.1" stroke-width="2"/>
<path d="M1261.97 1389.73C1219.08 1597.58 1260.77 1687.25 1439.53 1800.23C1493.73 1593.01 1426.87 1513.53 1261.97 1389.73Z" stroke="#3D1D1D" stroke-opacity="0.1" stroke-width="2"/>
<path d="M1623.66 1389.57C1441.52 1498.74 1403.7 1590.1 1441.51 1798.05C1630.83 1697.63 1644.11 1594.65 1623.66 1389.57Z" stroke="#3D1D1D" stroke-opacity="0.1" stroke-width="2"/>
<path d="M1771.94 1487.79C1561.6 1517.17 1491.06 1586.5 1444.53 1792.68C1658.08 1774.15 1710.57 1684.54 1771.94 1487.79Z" stroke="#3D1D1D" stroke-opacity="0.1" stroke-width="2"/>
<path d="M1860.82 1637.54C1654.4 1587.56 1563.29 1626.1 1444.13 1800.73C1649.52 1861.99 1731.32 1797.95 1860.82 1637.54Z" stroke="#3D1D1D" stroke-opacity="0.1" stroke-width="2"/>
<path d="M1845.31 2001.06C1746.87 1813.01 1657.8 1769.95 1447.83 1795.52C1537.11 1990.23 1639.22 2009.49 1845.31 2001.06Z" stroke="#3D1D1D" stroke-opacity="0.1" stroke-width="2"/>
</g>
<g filter="url(#filter2_d_16_49)">
<path d="M-1.62408 448.649C-175.548 326.845 -274.459 329.51 -449.178 448.649C-280.318 580.569 -180.774 550.777 -1.62408 448.649Z" stroke="#3D1D1D" stroke-opacity="0.1" stroke-width="2"/>
<path d="M0.582344 447.61C-121.319 621.394 -118.652 720.227 0.582344 894.805C132.608 726.081 102.792 626.616 0.582344 447.61Z" stroke="#3D1D1D" stroke-opacity="0.1" stroke-width="2"/>
<path d="M-2.05242 446.172C39.6974 654.252 113.123 720.526 321.853 754.777C290.755 542.869 198.136 495.79 -2.05242 446.172Z" stroke="#3D1D1D" stroke-opacity="0.1" stroke-width="2"/>
<path d="M-3.17187 452.657C-46.0676 660.503 -4.3777 750.168 174.389 863.152C228.587 655.937 161.725 576.454 -3.17187 452.657Z" stroke="#3D1D1D" stroke-opacity="0.1" stroke-width="2"/>
<path d="M-2.3462 450.237C-184.48 559.404 -222.3 650.765 -184.496 858.72C4.82438 758.291 18.1034 655.312 -2.3462 450.237Z" stroke="#3D1D1D" stroke-opacity="0.1" stroke-width="2"/>
<path d="M0.287412 444.435C-210.057 473.813 -280.598 543.145 -327.121 749.327C-113.578 730.799 -61.0842 641.19 0.287412 444.435Z" stroke="#3D1D1D" stroke-opacity="0.1" stroke-width="2"/>
<path d="M-0.310218 451.978C-206.724 401.991 -297.842 440.537 -417.001 615.168C-211.607 676.42 -129.807 612.386 -0.310218 451.978Z" stroke="#3D1D1D" stroke-opacity="0.1" stroke-width="2"/>
<path d="M0.0909098 451.882C-102.832 266.245 -192.911 225.334 -402.21 255.931C-308.275 448.443 -205.73 465.247 0.0909098 451.882Z" stroke="#3D1D1D" stroke-opacity="0.1" stroke-width="2"/>
<path d="M445.93 448.934C272.006 327.13 173.095 329.795 -1.62415 448.934C167.236 580.854 266.781 551.062 445.93 448.934Z" stroke="#3D1D1D" stroke-opacity="0.1" stroke-width="2"/>
<path d="M-2.71392 -0.999939C-124.616 172.784 -121.949 271.617 -2.71392 446.196C129.312 277.471 99.4957 178.006 -2.71392 -0.999939Z" stroke="#3D1D1D" stroke-opacity="0.1" stroke-width="2"/>
<path d="M-328.959 139.27C-285.504 347 -211.538 412.672 -2.53381 445.213C-35.3686 233.566 -128.37 187.248 -328.959 139.27Z" stroke="#3D1D1D" stroke-opacity="0.1" stroke-width="2"/>
<path d="M-181.027 40.7347C-223.922 248.581 -182.232 338.245 -3.46575 451.23C50.7319 244.015 -16.13 164.532 -181.027 40.7347Z" stroke="#3D1D1D" stroke-opacity="0.1" stroke-width="2"/>
<path d="M180.656 40.5719C-1.47814 149.739 -39.2982 241.1 -1.49413 449.055C187.827 348.626 201.106 245.647 180.656 40.5719Z" stroke="#3D1D1D" stroke-opacity="0.1" stroke-width="2"/>
<path d="M328.942 138.787C118.597 168.165 48.0568 237.497 1.53389 443.679C215.077 425.151 267.571 335.543 328.942 138.787Z" stroke="#3D1D1D" stroke-opacity="0.1" stroke-width="2"/>
<path d="M417.818 288.544C211.404 238.557 120.286 277.104 1.12702 451.734C206.521 512.986 288.321 448.952 417.818 288.544Z" stroke="#3D1D1D" stroke-opacity="0.1" stroke-width="2"/>
<path d="M402.307 652.063C303.874 464.01 214.804 420.95 4.83017 446.517C94.1132 641.228 196.224 660.486 402.307 652.063Z" stroke="#3D1D1D" stroke-opacity="0.1" stroke-width="2"/>
</g>
<g filter="url(#filter3_d_16_49)">
<path d="M-1.62408 1346.65C-175.548 1224.85 -274.459 1227.51 -449.178 1346.65C-280.318 1478.57 -180.774 1448.78 -1.62408 1346.65Z" stroke="#3D1D1D" stroke-opacity="0.1" stroke-width="2"/>
<path d="M0.582344 1345.61C-121.319 1519.39 -118.652 1618.23 0.582344 1792.81C132.608 1624.08 102.792 1524.62 0.582344 1345.61Z" stroke="#3D1D1D" stroke-opacity="0.1" stroke-width="2"/>
<path d="M-2.05242 1344.17C39.6974 1552.25 113.123 1618.53 321.853 1652.78C290.755 1440.87 198.136 1393.79 -2.05242 1344.17Z" stroke="#3D1D1D" stroke-opacity="0.1" stroke-width="2"/>
<path d="M-3.17187 1350.66C-46.0676 1558.5 -4.3777 1648.17 174.389 1761.15C228.587 1553.94 161.725 1474.45 -3.17187 1350.66Z" stroke="#3D1D1D" stroke-opacity="0.1" stroke-width="2"/>
<path d="M-2.3462 1348.24C-184.48 1457.4 -222.3 1548.77 -184.496 1756.72C4.82438 1656.29 18.1034 1553.31 -2.3462 1348.24Z" stroke="#3D1D1D" stroke-opacity="0.1" stroke-width="2"/>
<path d="M0.287412 1342.43C-210.057 1371.81 -280.598 1441.15 -327.121 1647.33C-113.578 1628.8 -61.0842 1539.19 0.287412 1342.43Z" stroke="#3D1D1D" stroke-opacity="0.1" stroke-width="2"/>
<path d="M-0.310218 1349.98C-206.724 1299.99 -297.842 1338.54 -417.001 1513.17C-211.607 1574.42 -129.807 1510.39 -0.310218 1349.98Z" stroke="#3D1D1D" stroke-opacity="0.1" stroke-width="2"/>
<path d="M0.0909098 1349.88C-102.832 1164.25 -192.911 1123.33 -402.21 1153.93C-308.275 1346.44 -205.73 1363.25 0.0909098 1349.88Z" stroke="#3D1D1D" stroke-opacity="0.1" stroke-width="2"/>
<path d="M445.93 1346.93C272.006 1225.13 173.095 1227.8 -1.62415 1346.93C167.236 1478.85 266.781 1449.06 445.93 1346.93Z" stroke="#3D1D1D" stroke-opacity="0.1" stroke-width="2"/>
<path d="M-2.71392 897C-124.616 1070.78 -121.949 1169.62 -2.71392 1344.2C129.312 1175.47 99.4957 1076.01 -2.71392 897Z" stroke="#3D1D1D" stroke-opacity="0.1" stroke-width="2"/>
<path d="M-328.959 1037.27C-285.504 1245 -211.538 1310.67 -2.53381 1343.21C-35.3686 1131.57 -128.37 1085.25 -328.959 1037.27Z" stroke="#3D1D1D" stroke-opacity="0.1" stroke-width="2"/>
<path d="M-181.027 938.735C-223.922 1146.58 -182.232 1236.25 -3.46575 1349.23C50.7319 1142.01 -16.13 1062.53 -181.027 938.735Z" stroke="#3D1D1D" stroke-opacity="0.1" stroke-width="2"/>
<path d="M180.656 938.572C-1.47814 1047.74 -39.2982 1139.1 -1.49413 1347.05C187.827 1246.63 201.106 1143.65 180.656 938.572Z" stroke="#3D1D1D" stroke-opacity="0.1" stroke-width="2"/>
<path d="M328.942 1036.79C118.597 1066.17 48.0568 1135.5 1.53389 1341.68C215.077 1323.15 267.571 1233.54 328.942 1036.79Z" stroke="#3D1D1D" stroke-opacity="0.1" stroke-width="2"/>
<path d="M417.818 1186.54C211.404 1136.56 120.286 1175.1 1.12702 1349.73C206.521 1410.99 288.321 1346.95 417.818 1186.54Z" stroke="#3D1D1D" stroke-opacity="0.1" stroke-width="2"/>
<path d="M402.307 1550.06C303.874 1362.01 214.804 1318.95 4.83017 1344.52C94.1132 1539.23 196.224 1558.49 402.307 1550.06Z" stroke="#3D1D1D" stroke-opacity="0.1" stroke-width="2"/>
</g>
<defs>
<filter id="filter0_d_16_49" x="984.127" y="445.135" width="908.67" height="909.363" filterUnits="userSpaceOnUse" color-interpolation-filters="sRGB">
<feFlood flood-opacity="0" result="BackgroundImageFix"/>
<feColorMatrix in="SourceAlpha" type="matrix" values="0 0 0 0 0 0 0 0 0 0 0 0 0 0 0 0 0 0 127 0" result="hardAlpha"/>
<feOffset dy="4"/>
<feGaussianBlur stdDeviation="2.5"/>
<feComposite in2="hardAlpha" operator="out"/>
<feColorMatrix type="matrix" values="0 0 0 0 0 0 0 0 0 0 0 0 0 0 0 0 0 0 0.5 0"/>
<feBlend mode="normal" in2="BackgroundImageFix" result="effect1_dropShadow_16_49"/>
<feBlend mode="normal" in="SourceGraphic" in2="effect1_dropShadow_16_49" result="shape"/>
</filter>
<filter id="filter1_d_16_49" x="987.127" y="1345.14" width="908.67" height="909.363" filterUnits="userSpaceOnUse" color-interpolation-filters="sRGB">
<feFlood flood-opacity="0" result="BackgroundImageFix"/>
<feColorMatrix in="SourceAlpha" type="matrix" values="0 0 0 0 0 0 0 0 0 0 0 0 0 0 0 0 0 0 127 0" result="hardAlpha"/>
<feOffset dy="4"/>
<feGaussianBlur stdDeviation="2.5"/>
<feComposite in2="hardAlpha" operator="out"/>
<feColorMatrix type="matrix" values="0 0 0 0 0 0 0 0 0 0 0 0 0 0 0 0 0 0 0.5 0"/>
<feBlend mode="normal" in2="BackgroundImageFix" result="effect1_dropShadow_16_49"/>
<feBlend mode="normal" in="SourceGraphic" in2="effect1_dropShadow_16_49" result="shape"/>
</filter>
<filter id="filter2_d_16_49" x="-455.873" y="-3.86487" width="908.67" height="909.363" filterUnits="userSpaceOnUse" color-interpolation-filters="sRGB">
<feFlood flood-opacity="0" result="BackgroundImageFix"/>
<feColorMatrix in="SourceAlpha" type="matrix" values="0 0 0 0 0 0 0 0 0 0 0 0 0 0 0 0 0 0 127 0" result="hardAlpha"/>
<feOffset dy="4"/>
<feGaussianBlur stdDeviation="2.5"/>
<feComposite in2="hardAlpha" operator="out"/>
<feColorMatrix type="matrix" values="0 0 0 0 0 0 0 0 0 0 0 0 0 0 0 0 0 0 0.5 0"/>
<feBlend mode="normal" in2="BackgroundImageFix" result="effect1_dropShadow_16_49"/>
<feBlend mode="normal" in="SourceGraphic" in2="effect1_dropShadow_16_49" result="shape"/>
</filter>
<filter id="filter3_d_16_49" x="-455.873" y="894.135" width="908.67" height="909.363" filterUnits="userSpaceOnUse" color-interpolation-filters="sRGB">
<feFlood flood-opacity="0" result="BackgroundImageFix"/>
<feColorMatrix in="SourceAlpha" type="matrix" values="0 0 0 0 0 0 0 0 0 0 0 0 0 0 0 0 0 0 127 0" result="hardAlpha"/>
<feOffset dy="4"/>
<feGaussianBlur stdDeviation="2.5"/>
<feComposite in2="hardAlpha" operator="out"/>
<feColorMatrix type="matrix" values="0 0 0 0 0 0 0 0 0 0 0 0 0 0 0 0 0 0 0.5 0"/>
<feBlend mode="normal" in2="BackgroundImageFix" result="effect1_dropShadow_16_49"/>
<feBlend mode="normal" in="SourceGraphic" in2="effect1_dropShadow_16_49" result="shape"/>
</filter>
</defs>
</svg>
