<svg width="35" height="35" viewBox="0 0 35 35" fill="none" xmlns="http://www.w3.org/2000/svg">
<rect width="35" height="35" fill="#D9D9D9"/>
<path d="M17.4512 17.4895C12.2335 13.8354 9.2661 13.9153 4.02454 17.4895C9.09033 21.4471 12.0767 20.5533 17.4512 17.4895Z" stroke="#3D1D1D" stroke-width="0.3"/>
<path d="M17.5176 17.4584C13.8605 22.6719 13.9405 25.6369 17.5176 30.8743C21.4783 25.8125 20.5838 22.8286 17.5176 17.4584Z" stroke="#3D1D1D" stroke-width="0.3"/>
<path d="M17.4386 17.4152C18.6911 23.6576 20.8939 25.6458 27.1558 26.6733C26.2228 20.3161 23.4443 18.9037 17.4386 17.4152Z" stroke="#3D1D1D" stroke-width="0.3"/>
<path d="M17.4049 17.6097C16.118 23.8451 17.3687 26.535 22.7317 29.9246C24.3576 23.7081 22.3518 21.3236 17.4049 17.6097Z" stroke="#3D1D1D" stroke-width="0.3"/>
<path d="M17.4298 17.5371C11.9658 20.8121 10.8312 23.5529 11.9653 29.7916C17.6449 26.7787 18.0433 23.6893 17.4298 17.5371Z" stroke="#3D1D1D" stroke-width="0.3"/>
<path d="M17.5085 17.3631C11.1982 18.2444 9.08195 20.3244 7.68627 26.5099C14.0926 25.954 15.6674 23.2658 17.5085 17.3631Z" stroke="#3D1D1D" stroke-width="0.3"/>
<path d="M17.4907 17.5894C11.2983 16.0898 8.56475 17.2462 4.98997 22.4851C11.1518 24.3226 13.6058 22.4016 17.4907 17.5894Z" stroke="#3D1D1D" stroke-width="0.3"/>
<path d="M17.5029 17.5865C14.4152 12.0174 11.7128 10.7901 5.43384 11.708C8.2519 17.4834 11.3282 17.9875 17.5029 17.5865Z" stroke="#3D1D1D" stroke-width="0.3"/>
<path d="M30.8778 17.498C25.6601 13.8439 22.6927 13.9239 17.4512 17.498C22.517 21.4556 25.5033 20.5619 30.8778 17.498Z" stroke="#3D1D1D" stroke-width="0.3"/>
<path d="M17.4184 4.00002C13.7614 9.21355 13.8414 12.1785 17.4184 17.4159C21.3792 12.3542 20.4847 9.3702 17.4184 4.00002Z" stroke="#3D1D1D" stroke-width="0.3"/>
<path d="M7.63135 8.20817C8.93497 14.4401 11.154 16.4102 17.4241 17.3865C16.439 11.0371 13.649 9.64749 7.63135 8.20817Z" stroke="#3D1D1D" stroke-width="0.3"/>
<path d="M12.0692 5.25204C10.7823 11.4874 12.033 14.1774 17.396 17.5669C19.0219 11.3504 17.0161 8.96597 12.0692 5.25204Z" stroke="#3D1D1D" stroke-width="0.3"/>
<path d="M22.9198 5.24717C17.4558 8.52219 16.3212 11.263 17.4553 17.5017C23.1349 14.4888 23.5333 11.3994 22.9198 5.24717Z" stroke="#3D1D1D" stroke-width="0.3"/>
<path d="M27.3684 8.19366C21.058 9.07501 18.9418 11.155 17.5461 17.3404C23.9524 16.7846 25.5272 14.0963 27.3684 8.19366Z" stroke="#3D1D1D" stroke-width="0.3"/>
<path d="M30.0346 12.6863C23.8422 11.1867 21.1087 12.3431 17.5339 17.582C23.6957 19.4196 26.1497 17.4985 30.0346 12.6863Z" stroke="#3D1D1D" stroke-width="0.3"/>
<path d="M29.5692 23.5918C26.6162 17.9503 23.9441 16.6585 17.6449 17.4255C20.3234 23.2668 23.3867 23.8445 29.5692 23.5918Z" stroke="#3D1D1D" stroke-width="0.3"/>
</svg>
