<svg width="576" height="574" viewBox="0 0 576 574" fill="none" xmlns="http://www.w3.org/2000/svg">
<path d="M287.985 287.732C178.009 210.651 115.464 212.337 4.98495 287.732C111.759 371.215 174.704 352.362 287.985 287.732Z" stroke="black" stroke-width="5"/>
<path d="M287.717 287.624C262.371 155.738 216.28 113.427 84.4712 90.6973C103.063 224.953 161.388 255.213 287.717 287.624Z" stroke="black" stroke-width="5"/>
<path d="M287.129 287.324C316.219 156.213 290.71 99.0822 178.755 25.897C142.524 156.502 184.045 207.428 287.129 287.324Z" stroke="black" stroke-width="5"/>
<path d="M285.747 288.19C364.121 179.132 363.174 116.572 289.088 5.21022C204.35 110.991 222.459 174.154 285.747 288.19Z" stroke="black" stroke-width="5"/>
<path d="M285.791 286.395C417.967 262.609 460.819 217.02 485.104 85.4889C350.638 102.494 319.691 160.458 285.791 286.395Z" stroke="black" stroke-width="5"/>
<path d="M285.848 285.432C416.606 316.069 474.035 291.236 548.537 180.153C418.369 142.383 366.956 183.299 285.848 285.432Z" stroke="black" stroke-width="5"/>
<path d="M287.221 286.372C208.569 395.231 209.358 457.793 283.16 569.343C368.166 463.777 350.218 400.569 287.221 286.372Z" stroke="black" stroke-width="5"/>
<path d="M288.115 286.115C155.878 309.566 112.911 355.046 88.2919 486.514C222.8 469.851 253.894 411.966 288.115 286.115Z" stroke="black" stroke-width="5"/>
<path d="M288.092 286.097C157.412 255.128 99.921 279.815 25.1368 390.708C155.208 428.809 206.725 388.024 288.092 286.097Z" stroke="black" stroke-width="5"/>
<path d="M570.985 287.913C461.009 210.831 398.464 212.518 287.985 287.913C394.759 371.396 457.704 352.543 570.985 287.913Z" stroke="black" stroke-width="5"/>
<path d="M490.838 484.68C465.492 352.794 419.4 310.483 287.592 287.753C306.183 422.009 364.508 452.269 490.838 484.68Z" stroke="black" stroke-width="5"/>
<path d="M395.335 548.82C424.426 417.709 398.917 360.578 286.962 287.393C250.731 417.998 292.252 468.925 395.335 548.82Z" stroke="black" stroke-width="5"/>
</svg>
