<svg width="587" height="547" viewBox="0 0 587 547" fill="none" xmlns="http://www.w3.org/2000/svg">
<path d="M288 273.667C178.024 197.841 115.479 199.5 5 273.667C111.774 355.791 174.719 337.245 288 273.667Z" stroke="black" stroke-width="5"/>
<path d="M288.769 276.201C155.403 260.654 101.116 291.253 39.5189 408.046C173.097 430.632 219.606 384.972 288.769 276.201Z" stroke="black" stroke-width="5"/>
<path d="M294.608 271.925C179.518 321.976 148.908 372.036 150.263 494.817C268.62 450.324 286.295 391.805 294.608 271.925Z" stroke="black" stroke-width="5"/>
<path d="M293.75 271.588C216.482 369.289 213.623 427.64 273.927 535.147C356.748 440.82 344.143 381.045 293.75 271.588Z" stroke="black" stroke-width="5"/>
<path d="M289.238 273.238C307.361 142.334 277.204 88.4068 159.567 25.7903C134.288 156.78 179.887 203.319 289.238 273.238Z" stroke="black" stroke-width="5"/>
<path d="M289.653 275.247C242.592 151.511 190.069 118.065 56.316 117.72C97.1142 244.866 159.681 264.611 289.653 275.247Z" stroke="black" stroke-width="5"/>
<path d="M582 273.667C472.024 197.841 409.479 199.5 299 273.667C405.774 355.791 468.719 337.245 582 273.667Z" stroke="black" stroke-width="5"/>
<path d="M547.708 139.232C414.341 123.685 360.054 154.284 298.457 271.077C432.035 293.662 478.545 248.003 547.708 139.232Z" stroke="black" stroke-width="5"/>
<path d="M436.042 48.742C321.044 98.8503 290.431 148.909 291.696 271.634C409.953 227.08 427.651 168.574 436.042 48.742Z" stroke="black" stroke-width="5"/>
<path d="M310.869 9.13015C233.709 106.838 230.847 165.189 291.045 272.689C373.749 178.354 361.17 118.581 310.869 9.13015Z" stroke="black" stroke-width="5"/>
<path d="M422.851 523.132C440.173 393.612 410.716 339.314 296.152 274.198C271.869 403.624 316.329 450.973 422.851 523.132Z" stroke="black" stroke-width="5"/>
<path d="M527.639 433.091C480.54 310.947 428.455 276.848 296.205 272.871C337.128 398.175 399.081 419.165 527.639 433.091Z" stroke="black" stroke-width="5"/>
</svg>
