<svg width="26" height="25" viewBox="0 0 26 25" fill="none" xmlns="http://www.w3.org/2000/svg">
<path d="M4.75 20C4.23437 20 3.79297 19.8163 3.42578 19.4489C3.05859 19.0815 2.875 18.6399 2.875 18.124V6.86763C2.875 6.35171 3.05859 5.91146 3.42578 5.54688C3.79297 5.18229 4.23437 5 4.75 5H21C21.5156 5 21.957 5.1837 22.3242 5.55109C22.6914 5.91849 22.875 6.36014 22.875 6.87604V18.1324C22.875 18.6483 22.6914 19.0885 22.3242 19.4531C21.957 19.8177 21.5156 20 21 20H4.75ZM12.875 13.75L4.75 9.08854V18.125H21V9.08854L12.875 13.75ZM12.875 11.5365L21 6.875H4.75L12.875 11.5365ZM4.75 9.08854V6.875V18.125V9.08854Z" fill="#503434"/>
</svg>
