<svg width="26" height="25" viewBox="0 0 26 25" fill="none" xmlns="http://www.w3.org/2000/svg">
<path d="M2.97909 8.85413H7.14575C7.14575 8.85413 7.66658 8.85413 7.66658 9.37496V22.9166C7.66658 22.9166 7.66658 23.4375 7.14575 23.4375H2.97909C2.97909 23.4375 2.45825 23.4375 2.45825 22.9166V9.37496C2.45825 9.37496 2.45825 8.85413 2.97909 8.85413Z" fill="#503434"/>
<path d="M5.04161 6.77081C5.55753 6.77494 6.06305 6.62572 6.49404 6.34209C6.92502 6.05847 7.26204 5.65321 7.46234 5.17774C7.66265 4.70227 7.7172 4.17801 7.61908 3.67149C7.52096 3.16497 7.2746 2.699 6.91124 2.33271C6.54789 1.96643 6.08392 1.71633 5.5782 1.61415C5.07248 1.51196 4.5478 1.5623 4.07074 1.75878C3.59368 1.95526 3.18572 2.28901 2.89864 2.71771C2.61156 3.1464 2.45829 3.65071 2.45827 4.16665C2.4569 4.50726 2.52264 4.84481 2.65172 5.16003C2.7808 5.47524 2.97071 5.76194 3.21059 6.00376C3.45048 6.24558 3.73564 6.43778 4.04981 6.56939C4.36398 6.70101 4.70099 6.76945 5.04161 6.77081Z" fill="#503434"/>
<path d="M19.6458 23.4375H22.7708C22.909 23.4375 23.0414 23.3826 23.1391 23.2849C23.2368 23.1872 23.2917 23.0548 23.2917 22.9166V14.1666C23.2917 10.2395 21.0729 8.33329 17.9687 8.33329C17.3541 8.31141 16.7416 8.41878 16.171 8.64846C15.6004 8.87813 15.0844 9.22499 14.6562 9.66662C14.5981 9.72979 14.5213 9.77289 14.4371 9.78974C14.3529 9.80658 14.2655 9.7963 14.1875 9.76037C14.1087 9.73095 14.0407 9.67839 13.9924 9.60961C13.9441 9.54082 13.9177 9.45902 13.9167 9.37495C13.9167 9.23682 13.8618 9.10434 13.7641 9.00667C13.6664 8.90899 13.534 8.85412 13.3958 8.85412H10.2708C10.1327 8.85412 10.0002 8.90899 9.90255 9.00667C9.80487 9.10434 9.75 9.23682 9.75 9.37495V22.9166C9.75 23.0548 9.80487 23.1872 9.90255 23.2849C10.0002 23.3826 10.1327 23.4375 10.2708 23.4375H13.3958C13.534 23.4375 13.6664 23.3826 13.7641 23.2849C13.8618 23.1872 13.9167 23.0548 13.9167 22.9166V15.1041C13.9167 14.4135 14.191 13.7511 14.6794 13.2627C15.1678 12.7743 15.8302 12.5 16.5208 12.5C17.2115 12.5 17.8739 12.7743 18.3623 13.2627C18.8506 13.7511 19.125 14.4135 19.125 15.1041V22.9166C19.125 23.0548 19.1799 23.1872 19.2775 23.2849C19.3752 23.3826 19.5077 23.4375 19.6458 23.4375Z" fill="#503434"/>
</svg>
