<svg width="26" height="25" viewBox="0 0 26 25" fill="none" xmlns="http://www.w3.org/2000/svg">
<g clip-path="url(#clip0_43_124)">
<path d="M19.6458 0H6.10417C4.58554 0.00275363 3.12991 0.607245 2.05608 1.68108C0.982245 2.75491 0.377754 4.21054 0.375 5.72917L0.375 19.2708C0.377754 20.7895 0.982245 22.2451 2.05608 23.3189C3.12991 24.3928 4.58554 24.9972 6.10417 25H19.6458C21.1645 24.9972 22.6201 24.3928 23.6939 23.3189C24.7678 22.2451 25.3722 20.7895 25.375 19.2708V5.72917C25.3722 4.21054 24.7678 2.75491 23.6939 1.68108C22.6201 0.607245 21.1645 0.00275363 19.6458 0ZM21.2083 16.6667C21.2083 17.7717 20.7693 18.8315 19.9879 19.6129C19.2065 20.3943 18.1467 20.8333 17.0417 20.8333H8.70833C7.60326 20.8333 6.54346 20.3943 5.76205 19.6129C4.98065 18.8315 4.54167 17.7717 4.54167 16.6667V8.33333C4.54167 7.22826 4.98065 6.16846 5.76205 5.38705C6.54346 4.60565 7.60326 4.16667 8.70833 4.16667H17.0417C18.1467 4.16667 19.2065 4.60565 19.9879 5.38705C20.7693 6.16846 21.2083 7.22826 21.2083 8.33333V16.6667Z" fill="#503434"/>
<path d="M8.70825 12.5C8.70825 13.605 9.14724 14.6649 9.92864 15.4463C10.71 16.2277 11.7698 16.6666 12.8749 16.6666C13.98 16.6666 15.0398 16.2277 15.8212 15.4463C16.6026 14.6649 17.0416 13.605 17.0416 12.5C17.0416 11.3949 16.6026 10.3351 15.8212 9.5537C15.0398 8.7723 13.98 8.33331 12.8749 8.33331C11.7698 8.33331 10.71 8.7723 9.92864 9.5537C9.14724 10.3351 8.70825 11.3949 8.70825 12.5Z" fill="#503434"/>
<path d="M17.0417 7.29167C17.0417 7.56793 17.1515 7.83289 17.3468 8.02824C17.5422 8.22359 17.8071 8.33333 18.0834 8.33333C18.3597 8.33333 18.6246 8.22359 18.82 8.02824C19.0153 7.83289 19.1251 7.56793 19.1251 7.29167C19.1251 7.0154 19.0153 6.75045 18.82 6.5551C18.6246 6.35975 18.3597 6.25 18.0834 6.25C17.8071 6.25 17.5422 6.35975 17.3468 6.5551C17.1515 6.75045 17.0417 7.0154 17.0417 7.29167Z" fill="#503434"/>
</g>
<defs>
<clipPath id="clip0_43_124">
<rect width="25" height="25" fill="white" transform="translate(0.375)"/>
</clipPath>
</defs>
</svg>
