<svg width="26" height="25" viewBox="0 0 26 25" fill="none" xmlns="http://www.w3.org/2000/svg">
<path d="M20.2448 21.224C18.1441 21.0677 16.152 20.5512 14.2683 19.6745C12.3846 18.7977 10.6962 17.6128 9.20317 16.1198C7.71012 14.6267 6.5339 12.9427 5.67453 11.0677C4.81515 9.19271 4.29866 7.20486 4.12505 5.10417C4.09033 4.73958 4.19698 4.42274 4.445 4.15365C4.693 3.88455 5.00302 3.75 5.37505 3.75H8.91671C9.21185 3.75 9.46793 3.84115 9.68494 4.02344C9.90196 4.20573 10.0452 4.43576 10.1146 4.71354L10.7396 7.47396C10.7744 7.69965 10.7613 7.91667 10.7006 8.125C10.6398 8.33333 10.54 8.50694 10.4011 8.64583L7.87505 11.1979C8.22227 11.8576 8.62158 12.4913 9.07296 13.099C9.52435 13.7066 10.0276 14.2794 10.5826 14.8173C11.1039 15.3384 11.6598 15.8203 12.25 16.263C12.8403 16.7057 13.4653 17.1007 14.125 17.4479L16.7032 14.9479C16.8421 14.809 17.0157 14.7092 17.224 14.6484C17.4323 14.5877 17.6494 14.5747 17.875 14.6094L20.6615 15.2083C20.9566 15.2951 21.191 15.447 21.3646 15.6641C21.5382 15.8811 21.625 16.1372 21.625 16.4323V19.974C21.625 20.346 21.4862 20.656 21.2084 20.904C20.9306 21.152 20.6094 21.2587 20.2448 21.224ZM7.01567 9.375L8.83859 7.55208L8.39171 5.625H6.05213C6.13894 6.28472 6.26047 6.92274 6.41672 7.53906C6.57297 8.15538 6.77262 8.76736 7.01567 9.375ZM15.974 18.3333C16.5834 18.5806 17.2045 18.777 17.8373 18.9224C18.4701 19.0679 19.1077 19.184 19.75 19.2708V16.9271L17.7969 16.5104L15.974 18.3333Z" fill="#503434"/>
</svg>
