<svg width="26" height="25" viewBox="0 0 26 25" fill="none" xmlns="http://www.w3.org/2000/svg">
<g clip-path="url(#clip0_43_111)">
<path d="M12.8751 0.291688C9.89925 0.290803 7.02072 1.3516 4.7571 3.28334C2.49348 5.21508 0.993278 7.89101 0.526259 10.83C0.0592395 13.7689 0.656041 16.7781 2.20935 19.3164C3.76266 21.8546 6.17056 23.7555 9.00008 24.6771H9.29175C9.55783 24.6901 9.81877 24.6006 10.0209 24.4271C10.1425 24.3212 10.2392 24.1897 10.304 24.042C10.3689 23.8943 10.4002 23.7342 10.3959 23.5729V23.3542V22.2188C10.3875 22.1512 10.3657 22.0859 10.3317 22.0269C10.2977 21.9678 10.2523 21.9162 10.198 21.875C10.1387 21.8276 10.0698 21.7937 9.99599 21.7757C9.92221 21.7577 9.84539 21.756 9.77092 21.7709C6.96883 22.375 6.37508 20.625 6.34383 20.5104C5.99148 19.5831 5.36231 18.7867 4.54175 18.2292L4.3855 18.1146C4.5085 18.0552 4.64523 18.03 4.78133 18.0417C5.04094 18.0807 5.28628 18.1854 5.4941 18.3458C5.70191 18.5063 5.86532 18.7171 5.96883 18.9584C6.3718 19.66 7.03121 20.178 7.80832 20.4034C8.58543 20.6287 9.41966 20.5439 10.1355 20.1667C10.2128 20.1323 10.2813 20.0806 10.3354 20.0156C10.3896 19.9506 10.4281 19.874 10.448 19.7917C10.4902 19.3135 10.6963 18.8646 11.0313 18.5209C11.1086 18.4542 11.1646 18.3664 11.1923 18.2683C11.2201 18.1701 11.2185 18.066 11.1876 17.9688C11.1591 17.8714 11.1023 17.7847 11.0244 17.7198C10.9465 17.6549 10.851 17.6146 10.7501 17.6042C8.28133 17.3229 5.75008 16.4584 5.75008 12.1979C5.7321 11.1266 6.12754 10.0895 6.85425 9.3021C6.91993 9.23018 6.96366 9.14095 6.98027 9.04497C6.99688 8.94899 6.98568 8.85026 6.948 8.76044C6.6595 7.94787 6.66319 7.06017 6.95841 6.25002C7.92033 6.42191 8.82325 6.83396 9.58341 7.44794C9.64667 7.49118 9.71903 7.51931 9.79488 7.53015C9.87074 7.54099 9.94808 7.53424 10.0209 7.51044C10.952 7.26212 11.9115 7.13607 12.8751 7.13544C13.8425 7.13085 14.8061 7.25699 15.7397 7.51044C15.8108 7.53416 15.8865 7.54086 15.9606 7.53C16.0348 7.51915 16.1054 7.49104 16.1667 7.44794C16.926 6.8324 17.8293 6.42017 18.7917 6.25002C19.0779 7.05164 19.0779 7.92757 18.7917 8.72919C18.7541 8.81974 18.7439 8.91937 18.7624 9.01569C18.7809 9.112 18.8273 9.20074 18.8959 9.27085C19.6114 10.052 20.0025 11.0763 19.9897 12.1354C19.9897 16.4063 17.4584 17.2604 14.9792 17.5313C14.8784 17.5417 14.7828 17.5819 14.7049 17.6469C14.627 17.7118 14.5702 17.7985 14.5417 17.8959C14.5117 17.9915 14.5105 18.0939 14.5383 18.1902C14.5661 18.2865 14.6216 18.3726 14.698 18.4375C14.9284 18.6781 15.1044 18.9653 15.214 19.2798C15.3237 19.5944 15.3644 19.9288 15.3334 20.2604V23.5729C15.3311 23.7349 15.3644 23.8953 15.431 24.0429C15.4976 24.1906 15.5959 24.3217 15.7188 24.4271C15.874 24.5453 16.055 24.625 16.247 24.6594C16.439 24.6938 16.6364 24.682 16.823 24.625C19.6201 23.6732 21.9896 21.7613 23.5111 19.2286C25.0327 16.6959 25.6079 13.7061 25.1347 10.7896C24.6615 7.8731 23.1706 5.21851 20.9263 3.29676C18.6821 1.37502 15.8296 0.310368 12.8751 0.291688Z" fill="#503434"/>
</g>
<defs>
<clipPath id="clip0_43_111">
<rect width="25" height="25" fill="white" transform="translate(0.375)"/>
</clipPath>
</defs>
</svg>
