<svg width="385" height="92" viewBox="0 0 385 92" fill="none" xmlns="http://www.w3.org/2000/svg">
<path d="M18.112 55.296C18.048 55.296 17.856 55.264 17.536 55.2C17.248 55.136 16.96 55.056 16.672 54.96C16.416 54.864 16.272 54.752 16.24 54.624C16.176 54.016 16.336 53.152 16.72 52.032C17.104 50.912 17.616 49.664 18.256 48.288C18.928 46.88 19.616 45.504 20.32 44.16C20.192 44.16 20.048 44.16 19.888 44.16C19.76 44.128 19.616 44.112 19.456 44.112C19.072 44.048 18.88 43.872 18.88 43.584C18.88 43.424 19.056 43.344 19.408 43.344C19.664 43.344 19.888 43.36 20.08 43.392C20.272 43.392 20.48 43.392 20.704 43.392C21.344 42.176 21.936 41.088 22.48 40.128C23.024 39.136 23.408 38.384 23.632 37.872C23.824 37.52 23.952 37.232 24.016 37.008C24.08 36.752 24.112 36.56 24.112 36.432C24.112 36.24 24.08 36.08 24.016 35.952C24.08 35.568 24.304 35.056 24.688 34.416C25.104 33.776 25.616 33.136 26.224 32.496C26.832 31.856 27.488 31.328 28.192 30.912C28.896 30.464 29.552 30.24 30.16 30.24C30.352 30.24 30.64 30.304 31.024 30.432C31.44 30.528 31.84 30.688 32.224 30.912C32.608 31.136 32.848 31.456 32.944 31.872C32.976 31.936 32.992 32.032 32.992 32.16C32.992 32.256 32.944 32.304 32.848 32.304C32.784 32.304 32.688 32.288 32.56 32.256C32.464 32.192 32.384 32.16 32.32 32.16C31.616 32.16 30.848 32.496 30.016 33.168C29.216 33.808 28.384 34.672 27.52 35.76C26.656 36.848 25.792 38.064 24.928 39.408C24.096 40.72 23.296 42.048 22.528 43.392C24.128 43.328 25.824 43.136 27.616 42.816C29.408 42.464 31.184 42 32.944 41.424C34.704 40.848 36.336 40.144 37.84 39.312C39.344 38.48 40.608 37.536 41.632 36.48C42.752 35.296 43.312 34.08 43.312 32.832C43.312 31.904 42.96 31.04 42.256 30.24C41.552 29.44 40.448 28.832 38.944 28.416C38.048 28.16 37.024 27.968 35.872 27.84C34.752 27.712 33.536 27.648 32.224 27.648C30.176 27.648 28.064 27.824 25.888 28.176C23.744 28.528 21.728 29.072 19.84 29.808C17.952 30.512 16.368 31.408 15.088 32.496C13.808 33.584 13.04 34.88 12.784 36.384C12.688 37.152 12.832 37.76 13.216 38.208C13.6 38.656 14.064 39.008 14.608 39.264C15.184 39.488 15.632 39.696 15.952 39.888C16.176 40.08 16.288 40.24 16.288 40.368C16.288 40.592 16.08 40.672 15.664 40.608C15.216 40.512 14.656 40.288 13.984 39.936C13.344 39.584 12.768 39.104 12.256 38.496C11.776 37.856 11.536 37.12 11.536 36.288C11.536 36.16 11.536 36.032 11.536 35.904C11.568 35.776 11.6 35.648 11.632 35.52C11.632 35.488 11.616 35.392 11.584 35.232C11.584 35.04 11.584 34.88 11.584 34.752C11.776 33.76 12.256 32.832 13.024 31.968C13.824 31.072 14.72 30.288 15.712 29.616C16.736 28.912 17.68 28.352 18.544 27.936C20.048 27.2 21.856 26.624 23.968 26.208C26.08 25.76 28.288 25.536 30.592 25.536C32 25.536 33.392 25.632 34.768 25.824C36.176 26.016 37.536 26.32 38.848 26.736C40.672 27.344 42.08 28.288 43.072 29.568C44.096 30.816 44.56 32.128 44.464 33.504C44.368 34.816 43.904 36 43.072 37.056C42.272 38.112 41.232 39.04 39.952 39.84C38.704 40.608 37.312 41.28 35.776 41.856C34.272 42.4 32.752 42.848 31.216 43.2C29.744 43.52 28.176 43.76 26.512 43.92C24.88 44.08 23.408 44.176 22.096 44.208C21.328 45.584 20.64 46.88 20.032 48.096C19.456 49.312 19.024 50.288 18.736 51.024C18.48 51.728 18.352 52.224 18.352 52.512C18.352 52.96 18.528 53.184 18.88 53.184C19.328 53.184 19.808 52.88 20.32 52.272C20.672 51.856 20.992 51.472 21.28 51.12C21.6 50.736 21.872 50.576 22.096 50.64C22.128 50.672 22.144 50.72 22.144 50.784C22.144 50.944 22.032 51.168 21.808 51.456C21.584 51.712 21.456 51.856 21.424 51.888C21.2 52.208 20.896 52.64 20.512 53.184C20.16 53.728 19.776 54.208 19.36 54.624C18.976 55.072 18.56 55.296 18.112 55.296ZM41.9721 54.528C41.0761 54.528 40.2921 54.32 39.6201 53.904C38.5001 53.232 37.9401 52.016 37.9401 50.256C37.9401 49.52 38.0681 48.672 38.3241 47.712C38.5481 46.912 38.9481 46.048 39.5241 45.12C40.1001 44.16 40.7721 43.248 41.5401 42.384C42.3401 41.52 43.2041 40.816 44.1321 40.272C45.0601 39.728 45.9881 39.456 46.9161 39.456C47.3001 39.456 47.6361 39.504 47.9241 39.6C48.3081 39.728 48.6281 39.968 48.8841 40.32C49.1721 40.64 49.3161 41.056 49.3161 41.568C49.3161 42.112 49.1721 42.416 48.8841 42.48C48.6281 42.544 48.5001 42.48 48.5001 42.288C48.5001 42.224 48.5001 42.16 48.5001 42.096C48.5321 42.032 48.5481 41.984 48.5481 41.952C48.5481 41.696 48.4681 41.472 48.3081 41.28C48.1801 41.056 47.9241 40.944 47.5401 40.944C47.0281 40.944 46.3881 41.216 45.6201 41.76C44.8841 42.304 44.1161 43.04 43.3161 43.968C42.5481 44.864 41.8601 45.856 41.2521 46.944C40.6761 48.032 40.2921 49.12 40.1001 50.208C40.0681 50.368 40.0361 50.528 40.0041 50.688C40.0041 50.816 40.0041 50.96 40.0041 51.12C40.0041 51.856 40.1641 52.48 40.4841 52.992C40.8361 53.472 41.3801 53.712 42.1161 53.712C43.0121 53.712 43.8761 53.376 44.7081 52.704C45.5401 52 46.2761 51.168 46.9161 50.208C47.5881 49.248 48.0841 48.4 48.4041 47.664C48.6601 47.088 48.8361 46.592 48.9321 46.176C49.0281 45.76 49.0761 45.408 49.0761 45.12C49.0761 44.864 49.0441 44.64 48.9801 44.448C48.9481 44.256 48.9001 44.096 48.8361 43.968C48.7721 43.776 48.7401 43.632 48.7401 43.536C48.7401 43.28 48.8361 43.072 49.0281 42.912C49.2521 42.752 49.4761 42.672 49.7001 42.672C49.8921 42.672 50.1001 42.736 50.3241 42.864C50.5801 42.928 50.9321 42.976 51.3801 43.008C51.8281 43.04 52.3081 43.056 52.8201 43.056C53.3641 43.056 53.9081 43.04 54.4521 43.008C55.0281 42.976 55.5241 42.912 55.9401 42.816C56.0041 42.784 56.1001 42.768 56.2281 42.768C56.4521 42.768 56.5641 42.832 56.5641 42.96C56.5641 43.088 56.4521 43.2 56.2281 43.296C55.1081 43.808 54.1001 44.08 53.2041 44.112C52.3401 44.144 51.5881 44.16 50.9481 44.16C51.0121 44.96 50.8361 45.824 50.4201 46.752C50.0041 47.648 49.5721 48.448 49.1241 49.152C48.5801 49.952 47.9561 50.768 47.2521 51.6C46.5481 52.432 45.7641 53.136 44.9001 53.712C44.0361 54.256 43.0601 54.528 41.9721 54.528ZM61.8722 54.576C61.3282 54.576 60.8482 54.448 60.4322 54.192C60.0162 53.968 59.7282 53.52 59.5682 52.848C59.4722 52.496 59.4242 52.144 59.4242 51.792C59.4242 50.832 59.6642 49.904 60.1442 49.008C60.6562 48.08 61.2482 47.232 61.9202 46.464C62.5922 45.664 63.1682 44.992 63.6482 44.448C63.9042 44.192 64.1922 43.856 64.5122 43.44C64.8642 43.024 65.0402 42.608 65.0402 42.192C65.0402 41.936 64.9122 41.696 64.6562 41.472C64.4002 41.216 63.9362 41.04 63.2642 40.944C62.8802 40.88 62.5122 40.832 62.1602 40.8C61.8402 40.736 61.5042 40.704 61.1522 40.704C60.2562 41.92 59.3762 43.152 58.5122 44.4C57.6802 45.616 56.7842 46.816 55.8242 48C55.6002 48.224 55.4082 48.336 55.2482 48.336C55.0562 48.336 54.9602 48.24 54.9602 48.048C54.9602 47.856 55.0562 47.664 55.2482 47.472C56.9762 45.36 58.4642 43.104 59.7122 40.704C59.5522 40.704 59.3122 40.704 58.9922 40.704C58.6722 40.672 58.4162 40.64 58.2242 40.608C58.0002 40.544 57.8242 40.448 57.6962 40.32C57.5682 40.192 57.5042 40.064 57.5042 39.936C57.5042 39.744 57.5842 39.632 57.7442 39.6C58.1602 39.472 58.6082 39.28 59.0882 39.024C59.5682 38.768 60.0162 38.432 60.4322 38.016C60.8802 37.568 61.2962 37.104 61.6802 36.624C62.0642 36.112 62.3682 35.728 62.5922 35.472C62.8162 35.312 63.0562 35.232 63.3122 35.232C63.4722 35.232 63.6162 35.28 63.7442 35.376C63.9042 35.472 63.9842 35.616 63.9842 35.808C63.9842 36.032 63.8882 36.32 63.6962 36.672C63.4082 37.12 63.0882 37.616 62.7362 38.16C62.4162 38.704 62.1122 39.2 61.8242 39.648C62.4002 39.68 62.9762 39.712 63.5522 39.744C64.1282 39.776 64.7202 39.792 65.3282 39.792C65.6482 39.792 65.9522 39.792 66.2402 39.792C66.5602 39.76 66.8802 39.744 67.2003 39.744C68.1603 39.744 68.6403 39.984 68.6403 40.464C68.6403 40.784 68.4643 41.184 68.1122 41.664C67.7923 42.112 67.3923 42.608 66.9122 43.152C65.8242 44.4 64.8962 45.712 64.1282 47.088C63.3602 48.464 62.8482 49.52 62.5922 50.256C62.3362 51.024 62.2082 51.6 62.2082 51.984C62.2082 52.752 62.5122 53.136 63.1202 53.136C63.6642 53.136 64.3202 52.864 65.0882 52.32C65.8882 51.776 66.7042 51.12 67.5363 50.352C68.3682 49.552 69.1202 48.784 69.7922 48.048C70.4642 47.28 70.9442 46.704 71.2322 46.32C71.2962 46.224 71.3923 46.176 71.5203 46.176C71.6482 46.176 71.7602 46.24 71.8563 46.368C71.9523 46.464 71.9523 46.592 71.8563 46.752C71.5043 47.296 70.9922 47.984 70.3203 48.816C69.6483 49.616 68.8963 50.416 68.0643 51.216C67.2322 52.016 66.4162 52.704 65.6162 53.28C65.2002 53.6 64.6242 53.888 63.8882 54.144C63.1842 54.432 62.5122 54.576 61.8722 54.576ZM73.462 54.48C72.886 54.48 72.358 54.352 71.878 54.096C71.43 53.84 71.094 53.36 70.87 52.656C70.838 52.56 70.806 52.464 70.774 52.368C70.774 52.272 70.774 52.16 70.774 52.032C70.774 51.392 70.918 50.592 71.206 49.632C71.494 48.672 71.846 47.744 72.262 46.848C72.07 47.104 71.846 47.424 71.59 47.808C71.334 48.16 70.966 48.624 70.486 49.2C70.358 49.328 70.214 49.392 70.054 49.392C69.83 49.392 69.718 49.264 69.718 49.008C69.718 48.816 69.782 48.656 69.91 48.528C70.742 47.472 71.478 46.528 72.118 45.696C72.79 44.864 73.286 44.16 73.606 43.584C73.606 43.52 73.702 43.328 73.894 43.008C74.086 42.656 74.342 42.176 74.662 41.568C74.406 41.6 74.182 41.632 73.99 41.664C73.83 41.664 73.686 41.664 73.558 41.664C73.334 41.664 73.142 41.568 72.982 41.376C72.822 41.184 72.806 40.944 72.934 40.656C73.094 40.208 73.446 39.952 73.99 39.888C74.534 39.824 75.014 39.776 75.43 39.744C75.462 39.68 75.526 39.648 75.622 39.648C76.006 38.944 76.374 38.256 76.726 37.584C77.078 36.912 77.366 36.352 77.59 35.904C77.846 35.456 77.974 35.216 77.974 35.184C78.614 34.16 79.03 33.488 79.222 33.168C79.414 32.816 79.67 32.608 79.99 32.544C80.342 32.512 80.71 32.528 81.094 32.592C81.51 32.656 81.782 32.8 81.91 33.024C82.006 33.152 82.054 33.312 82.054 33.504C82.054 33.792 81.99 34.08 81.862 34.368C81.734 34.624 81.606 34.832 81.478 34.992C81.35 35.216 81.174 35.376 80.95 35.472C80.758 35.536 80.582 35.728 80.422 36.048C80.102 36.656 79.75 37.312 79.366 38.016C78.982 38.72 78.582 39.392 78.166 40.032L78.742 39.984C79.51 39.92 80.23 39.84 80.902 39.744C81.606 39.648 82.406 39.616 83.302 39.648C83.462 39.648 83.622 39.68 83.782 39.744C83.974 39.776 84.07 39.84 84.07 39.936C84.07 40.064 83.654 40.24 82.822 40.464C82.502 40.592 81.798 40.736 80.71 40.896C79.654 41.024 78.566 41.152 77.446 41.28C77.126 41.888 76.838 42.4 76.582 42.816C76.326 43.2 76.15 43.488 76.054 43.68C75.35 45.152 74.71 46.496 74.134 47.712C73.59 48.896 73.286 49.872 73.222 50.64C73.19 50.768 73.174 50.896 73.174 51.024C73.174 51.12 73.174 51.232 73.174 51.36C73.174 52.64 73.59 53.28 74.422 53.28C74.934 53.28 75.59 53.008 76.39 52.464C77.19 51.888 78.006 51.2 78.838 50.4C79.67 49.568 80.422 48.784 81.094 48.048C81.798 47.28 82.278 46.704 82.534 46.32C82.63 46.224 82.726 46.176 82.822 46.176C82.95 46.176 83.046 46.224 83.11 46.32C83.206 46.416 83.222 46.544 83.158 46.704C82.87 47.248 82.374 47.936 81.67 48.768C80.998 49.568 80.23 50.384 79.366 51.216C78.534 52.016 77.718 52.704 76.918 53.28C76.502 53.6 75.974 53.872 75.334 54.096C74.726 54.352 74.102 54.48 73.462 54.48ZM90.0021 37.296C89.5861 37.296 89.1541 37.264 88.7061 37.2C88.2581 37.104 88.0341 36.8 88.0341 36.288C88.0341 36.192 88.2421 35.968 88.6581 35.616C89.1061 35.264 89.5541 34.912 90.0021 34.56C90.4821 34.176 90.7701 33.952 90.8661 33.888C91.4101 33.44 91.7461 33.216 91.8741 33.216C92.0341 33.216 92.0341 33.424 91.8741 33.84C91.7141 34.256 91.6341 34.624 91.6341 34.944C91.6341 35.104 91.5381 35.376 91.3461 35.76C91.1541 36.144 90.9301 36.496 90.6741 36.816C90.4181 37.136 90.1941 37.296 90.0021 37.296ZM84.7701 54.48C84.1941 54.48 83.6661 54.352 83.1861 54.096C82.7381 53.84 82.4021 53.36 82.1781 52.656C82.1461 52.56 82.1141 52.464 82.0821 52.368C82.0821 52.272 82.0821 52.16 82.0821 52.032C82.0821 51.392 82.2261 50.592 82.5141 49.632C82.8021 48.672 83.1541 47.744 83.5701 46.848C83.3781 47.104 83.1541 47.424 82.8981 47.808C82.6421 48.16 82.2741 48.624 81.7941 49.2C81.6661 49.328 81.5221 49.392 81.3621 49.392C81.1381 49.392 81.0261 49.264 81.0261 49.008C81.0261 48.816 81.0901 48.656 81.2181 48.528C82.0501 47.472 82.7861 46.528 83.4261 45.696C84.0981 44.864 84.5941 44.16 84.9141 43.584C84.9141 43.552 84.8981 43.536 84.8661 43.536C84.8661 43.504 84.8661 43.472 84.8661 43.44C84.8661 43.344 84.9141 43.2 85.0101 43.008C85.2661 42.24 85.5221 41.6 85.7781 41.088C86.0661 40.544 86.3701 40.24 86.6901 40.176C86.7541 40.176 86.8181 40.176 86.8821 40.176C86.9461 40.144 87.0101 40.128 87.0741 40.128C87.4261 40.128 87.7461 40.208 88.0341 40.368C88.3221 40.528 88.4661 40.768 88.4661 41.088C88.4661 41.376 88.3541 41.728 88.1301 42.144C87.9381 42.56 87.6821 43.072 87.3621 43.68C86.6581 45.152 86.0181 46.496 85.4421 47.712C84.8981 48.896 84.5941 49.872 84.5301 50.64C84.4981 50.768 84.4821 50.896 84.4821 51.024C84.4821 51.12 84.4821 51.232 84.4821 51.36C84.4821 52.64 84.8981 53.28 85.7301 53.28C86.2421 53.28 86.8981 53.008 87.6981 52.464C88.4981 51.888 89.3141 51.2 90.1461 50.4C90.9781 49.568 91.7301 48.784 92.4021 48.048C93.1061 47.28 93.5861 46.704 93.8421 46.32C93.9381 46.224 94.0341 46.176 94.1301 46.176C94.2581 46.176 94.3541 46.224 94.4181 46.32C94.5141 46.416 94.5301 46.544 94.4661 46.704C94.1781 47.248 93.6821 47.936 92.9781 48.768C92.3061 49.568 91.5381 50.384 90.6741 51.216C89.8421 52.016 89.0261 52.704 88.2261 53.28C87.8101 53.6 87.2821 53.872 86.6421 54.096C86.0341 54.352 85.4101 54.48 84.7701 54.48ZM88.3983 70.32C88.1103 70.32 87.9663 70.224 87.9663 70.032C87.9663 69.872 87.9983 69.728 88.0623 69.6C88.1903 69.376 88.4783 68.72 88.9263 67.632C89.3743 66.576 89.9343 65.216 90.6063 63.552C91.2463 61.92 91.9503 60.144 92.7183 58.224C93.4863 56.336 94.2383 54.464 94.9743 52.608C95.7103 50.72 96.3823 49.008 96.9903 47.472C96.4143 47.568 95.9023 47.632 95.4543 47.664C95.0063 47.696 94.6863 47.712 94.4943 47.712C94.2063 47.712 93.9183 47.616 93.6303 47.424C93.3423 47.232 93.1983 46.976 93.1983 46.656C93.1983 46.368 93.3903 46.128 93.7743 45.936C94.1583 45.712 94.5743 45.552 95.0223 45.456C95.5023 45.328 95.8543 45.264 96.0783 45.264C96.4303 45.264 96.6863 45.392 96.8463 45.648C97.0383 45.904 97.2463 46.032 97.4703 46.032H97.5663C97.9183 45.136 98.2063 44.4 98.4303 43.824C98.6863 43.216 98.8463 42.784 98.9103 42.528C99.1663 41.856 99.5183 40.992 99.9663 39.936C100.414 38.88 100.91 37.76 101.454 36.576C101.998 35.36 102.558 34.192 103.134 33.072C103.742 31.92 104.302 30.928 104.814 30.096C105.294 29.36 105.854 28.624 106.494 27.888C107.166 27.12 107.886 26.496 108.654 26.016C109.454 25.504 110.302 25.248 111.198 25.248C111.582 25.248 111.95 25.296 112.302 25.392C112.654 25.456 112.99 25.568 113.31 25.728C114.27 26.272 114.75 27.056 114.75 28.08C114.75 28.496 114.67 28.96 114.51 29.472C114.382 29.952 114.19 30.464 113.934 31.008C113.518 31.936 112.83 33.04 111.87 34.32C110.942 35.6 109.854 36.928 108.606 38.304C107.39 39.68 106.126 41.008 104.814 42.288C103.502 43.568 102.238 44.688 101.022 45.648C101.854 45.584 102.702 45.52 103.566 45.456C104.43 45.36 105.294 45.312 106.158 45.312C106.382 45.312 106.606 45.344 106.83 45.408C107.086 45.44 107.214 45.504 107.214 45.6C107.214 45.664 107.134 45.744 106.974 45.84C106.846 45.904 106.574 46 106.158 46.128C105.902 46.192 105.39 46.304 104.622 46.464C103.854 46.592 102.958 46.72 101.934 46.848C100.942 46.976 99.9503 47.104 98.9583 47.232C98.5103 48.384 97.9823 49.76 97.3743 51.36C96.7983 52.928 96.2063 54.512 95.5983 56.112C95.0223 57.744 94.4943 59.2 94.0143 60.48C93.6303 61.6 93.3903 62.416 93.2943 62.928C93.1983 63.44 93.1503 63.824 93.1503 64.08V64.416C93.1503 64.544 93.1343 64.672 93.1023 64.8C93.1023 64.928 93.0543 65.104 92.9583 65.328C92.3823 66.8 91.9983 67.792 91.8063 68.304C91.6143 68.848 91.3423 69.232 90.9903 69.456C90.7343 69.584 90.3343 69.76 89.7903 69.984C89.2463 70.208 88.7823 70.32 88.3983 70.32ZM99.6303 45.744C100.814 44.848 102.03 43.76 103.278 42.48C104.526 41.2 105.742 39.84 106.926 38.4C108.11 36.928 109.182 35.488 110.142 34.08C111.134 32.672 111.95 31.424 112.59 30.336C113.134 29.44 113.406 28.592 113.406 27.792C113.406 26.928 113.102 26.496 112.494 26.496C111.982 26.496 111.374 26.784 110.67 27.36C110.062 27.808 109.326 28.56 108.462 29.616C107.63 30.64 106.798 31.792 105.966 33.072C105.166 34.32 104.462 35.504 103.854 36.624C103.15 37.968 102.51 39.264 101.934 40.512C101.358 41.728 100.894 42.752 100.542 43.584C100.19 44.384 99.9823 44.864 99.9183 45.024C99.8223 45.216 99.7263 45.456 99.6303 45.744ZM111.638 54.528C110.742 54.528 109.958 54.32 109.286 53.904C108.166 53.232 107.606 52.016 107.606 50.256C107.606 49.52 107.734 48.672 107.99 47.712C108.214 46.912 108.614 46.048 109.19 45.12C109.766 44.16 110.438 43.248 111.206 42.384C112.006 41.52 112.87 40.816 113.798 40.272C114.726 39.728 115.654 39.456 116.582 39.456C116.966 39.456 117.302 39.504 117.59 39.6C117.974 39.728 118.294 39.968 118.55 40.32C118.838 40.64 118.982 41.056 118.982 41.568C118.982 42.112 118.838 42.416 118.55 42.48C118.294 42.544 118.166 42.48 118.166 42.288C118.166 42.224 118.166 42.16 118.166 42.096C118.198 42.032 118.214 41.984 118.214 41.952C118.214 41.696 118.134 41.472 117.974 41.28C117.846 41.056 117.59 40.944 117.206 40.944C116.694 40.944 116.054 41.216 115.286 41.76C114.55 42.304 113.782 43.04 112.982 43.968C112.214 44.864 111.526 45.856 110.918 46.944C110.342 48.032 109.958 49.12 109.766 50.208C109.734 50.368 109.702 50.528 109.67 50.688C109.67 50.816 109.67 50.96 109.67 51.12C109.67 51.856 109.83 52.48 110.15 52.992C110.502 53.472 111.046 53.712 111.782 53.712C112.678 53.712 113.542 53.376 114.374 52.704C115.206 52 115.942 51.168 116.582 50.208C117.254 49.248 117.75 48.4 118.07 47.664C118.326 47.088 118.502 46.592 118.598 46.176C118.694 45.76 118.742 45.408 118.742 45.12C118.742 44.864 118.71 44.64 118.646 44.448C118.614 44.256 118.566 44.096 118.502 43.968C118.438 43.776 118.406 43.632 118.406 43.536C118.406 43.28 118.502 43.072 118.694 42.912C118.918 42.752 119.142 42.672 119.366 42.672C119.558 42.672 119.766 42.736 119.99 42.864C120.246 42.928 120.598 42.976 121.046 43.008C121.494 43.04 121.974 43.056 122.486 43.056C123.03 43.056 123.574 43.04 124.118 43.008C124.694 42.976 125.19 42.912 125.606 42.816C125.67 42.784 125.766 42.768 125.894 42.768C126.118 42.768 126.23 42.832 126.23 42.96C126.23 43.088 126.118 43.2 125.894 43.296C124.774 43.808 123.766 44.08 122.87 44.112C122.006 44.144 121.254 44.16 120.614 44.16C120.678 44.96 120.502 45.824 120.086 46.752C119.67 47.648 119.238 48.448 118.79 49.152C118.246 49.952 117.622 50.768 116.918 51.6C116.214 52.432 115.43 53.136 114.566 53.712C113.702 54.256 112.726 54.528 111.638 54.528ZM116.582 36.528C116.326 36.528 116.198 36.464 116.198 36.336C116.198 36.176 116.438 35.952 116.918 35.664C117.238 35.472 117.734 35.136 118.406 34.656C119.11 34.176 119.894 33.6 120.758 32.928C121.206 32.544 121.574 32.24 121.862 32.016C122.15 31.792 122.358 31.68 122.486 31.68C122.582 31.68 122.694 31.68 122.822 31.68C122.982 31.68 123.142 31.76 123.302 31.92C123.654 32.176 123.83 32.4 123.83 32.592C123.83 32.72 123.798 32.848 123.734 32.976C123.67 33.072 123.59 33.184 123.494 33.312C123.27 33.504 122.822 33.776 122.15 34.128C121.478 34.48 120.742 34.848 119.942 35.232C119.142 35.584 118.422 35.888 117.782 36.144C117.142 36.4 116.742 36.528 116.582 36.528ZM128.274 54.48C126.93 54.48 125.986 54.144 125.442 53.472C124.93 52.8 124.674 51.968 124.674 50.976C124.674 50.048 124.882 48.88 125.298 47.472C125.746 46.064 126.322 44.544 127.026 42.912C127.73 41.28 128.482 39.664 129.282 38.064C130.114 36.432 130.93 34.944 131.73 33.6C132.562 32.224 133.282 31.12 133.89 30.288C134.498 29.488 135.154 28.688 135.858 27.888C136.562 27.088 137.346 26.416 138.21 25.872C139.074 25.328 140.05 25.056 141.138 25.056C141.874 25.056 142.498 25.264 143.01 25.68C143.554 26.064 143.826 26.656 143.826 27.456C143.826 27.776 143.762 28.144 143.634 28.56C143.538 28.976 143.362 29.408 143.106 29.856C141.154 33.248 138.818 36.384 136.098 39.264C133.41 42.144 130.562 44.816 127.554 47.28C127.426 47.76 127.298 48.192 127.17 48.576C127.074 48.96 126.994 49.264 126.93 49.488C126.898 49.648 126.882 49.824 126.882 50.016C126.882 50.176 126.882 50.336 126.882 50.496C126.882 51.264 127.01 51.936 127.266 52.512C127.522 53.088 127.954 53.376 128.562 53.376C129.138 53.376 129.842 53.104 130.674 52.56C131.538 51.984 132.402 51.296 133.266 50.496C134.13 49.664 134.914 48.864 135.618 48.096C136.322 47.328 136.818 46.736 137.106 46.32C137.202 46.224 137.298 46.176 137.394 46.176C137.522 46.176 137.618 46.24 137.682 46.368C137.778 46.496 137.778 46.656 137.682 46.848C137.362 47.392 136.85 48.064 136.146 48.864C135.442 49.664 134.658 50.48 133.794 51.312C132.93 52.112 132.098 52.816 131.298 53.424C130.306 54.128 129.298 54.48 128.274 54.48ZM128.226 45.36C129.442 44.528 130.706 43.456 132.018 42.144C133.33 40.8 134.61 39.344 135.858 37.776C137.138 36.208 138.29 34.656 139.314 33.12C140.37 31.584 141.218 30.192 141.858 28.944C142.05 28.592 142.178 28.288 142.242 28.032C142.338 27.744 142.386 27.488 142.386 27.264C142.386 26.656 142.13 26.352 141.618 26.352C141.17 26.352 140.61 26.592 139.938 27.072C138.21 28.416 136.61 30.144 135.138 32.256C133.666 34.336 132.354 36.528 131.202 38.832C130.05 41.136 129.058 43.312 128.226 45.36ZM144.516 37.296C144.1 37.296 143.668 37.264 143.22 37.2C142.772 37.104 142.548 36.8 142.548 36.288C142.548 36.192 142.756 35.968 143.172 35.616C143.62 35.264 144.068 34.912 144.516 34.56C144.996 34.176 145.284 33.952 145.38 33.888C145.924 33.44 146.26 33.216 146.388 33.216C146.548 33.216 146.548 33.424 146.388 33.84C146.228 34.256 146.148 34.624 146.148 34.944C146.148 35.104 146.052 35.376 145.86 35.76C145.668 36.144 145.444 36.496 145.188 36.816C144.932 37.136 144.708 37.296 144.516 37.296ZM139.284 54.48C138.708 54.48 138.18 54.352 137.7 54.096C137.252 53.84 136.916 53.36 136.692 52.656C136.66 52.56 136.628 52.464 136.596 52.368C136.596 52.272 136.596 52.16 136.596 52.032C136.596 51.392 136.74 50.592 137.028 49.632C137.316 48.672 137.668 47.744 138.084 46.848C137.892 47.104 137.668 47.424 137.412 47.808C137.156 48.16 136.788 48.624 136.308 49.2C136.18 49.328 136.036 49.392 135.876 49.392C135.652 49.392 135.54 49.264 135.54 49.008C135.54 48.816 135.604 48.656 135.732 48.528C136.564 47.472 137.3 46.528 137.94 45.696C138.612 44.864 139.108 44.16 139.428 43.584C139.428 43.552 139.412 43.536 139.38 43.536C139.38 43.504 139.38 43.472 139.38 43.44C139.38 43.344 139.428 43.2 139.524 43.008C139.78 42.24 140.036 41.6 140.292 41.088C140.58 40.544 140.884 40.24 141.204 40.176C141.268 40.176 141.332 40.176 141.396 40.176C141.46 40.144 141.524 40.128 141.588 40.128C141.94 40.128 142.26 40.208 142.548 40.368C142.836 40.528 142.98 40.768 142.98 41.088C142.98 41.376 142.868 41.728 142.644 42.144C142.452 42.56 142.196 43.072 141.876 43.68C141.172 45.152 140.532 46.496 139.956 47.712C139.412 48.896 139.108 49.872 139.044 50.64C139.012 50.768 138.996 50.896 138.996 51.024C138.996 51.12 138.996 51.232 138.996 51.36C138.996 52.64 139.412 53.28 140.244 53.28C140.756 53.28 141.412 53.008 142.212 52.464C143.012 51.888 143.828 51.2 144.66 50.4C145.492 49.568 146.244 48.784 146.916 48.048C147.62 47.28 148.1 46.704 148.356 46.32C148.452 46.224 148.548 46.176 148.644 46.176C148.772 46.176 148.868 46.224 148.932 46.32C149.028 46.416 149.044 46.544 148.98 46.704C148.692 47.248 148.196 47.936 147.492 48.768C146.82 49.568 146.052 50.384 145.188 51.216C144.356 52.016 143.54 52.704 142.74 53.28C142.324 53.6 141.796 53.872 141.156 54.096C140.548 54.352 139.924 54.48 139.284 54.48ZM151.984 54.528C151.088 54.528 150.304 54.32 149.632 53.904C148.512 53.232 147.952 52.016 147.952 50.256C147.952 49.52 148.08 48.672 148.336 47.712C148.56 46.912 148.96 46.048 149.536 45.12C150.112 44.16 150.784 43.248 151.552 42.384C152.352 41.52 153.216 40.816 154.144 40.272C155.072 39.728 156 39.456 156.928 39.456C157.312 39.456 157.648 39.504 157.936 39.6C158.32 39.728 158.64 39.968 158.896 40.32C159.184 40.64 159.328 41.056 159.328 41.568C159.328 42.112 159.184 42.416 158.896 42.48C158.64 42.544 158.512 42.48 158.512 42.288C158.512 42.224 158.512 42.16 158.512 42.096C158.544 42.032 158.56 41.984 158.56 41.952C158.56 41.696 158.48 41.472 158.32 41.28C158.192 41.056 157.936 40.944 157.552 40.944C157.04 40.944 156.4 41.216 155.632 41.76C154.896 42.304 154.128 43.04 153.328 43.968C152.56 44.864 151.872 45.856 151.264 46.944C150.688 48.032 150.304 49.12 150.112 50.208C150.08 50.368 150.048 50.528 150.016 50.688C150.016 50.816 150.016 50.96 150.016 51.12C150.016 51.856 150.176 52.48 150.496 52.992C150.848 53.472 151.392 53.712 152.128 53.712C153.024 53.712 153.888 53.376 154.72 52.704C155.552 52 156.288 51.168 156.928 50.208C157.6 49.248 158.096 48.4 158.416 47.664C158.672 47.088 158.848 46.592 158.944 46.176C159.04 45.76 159.088 45.408 159.088 45.12C159.088 44.864 159.056 44.64 158.992 44.448C158.96 44.256 158.912 44.096 158.848 43.968C158.784 43.776 158.752 43.632 158.752 43.536C158.752 43.28 158.848 43.072 159.04 42.912C159.264 42.752 159.488 42.672 159.712 42.672C159.904 42.672 160.112 42.736 160.336 42.864C160.592 42.928 160.944 42.976 161.392 43.008C161.84 43.04 162.32 43.056 162.832 43.056C163.376 43.056 163.92 43.04 164.464 43.008C165.04 42.976 165.536 42.912 165.952 42.816C166.016 42.784 166.112 42.768 166.24 42.768C166.464 42.768 166.576 42.832 166.576 42.96C166.576 43.088 166.464 43.2 166.24 43.296C165.12 43.808 164.112 44.08 163.216 44.112C162.352 44.144 161.6 44.16 160.96 44.16C161.024 44.96 160.848 45.824 160.432 46.752C160.016 47.648 159.584 48.448 159.136 49.152C158.592 49.952 157.968 50.768 157.264 51.6C156.56 52.432 155.776 53.136 154.912 53.712C154.048 54.256 153.072 54.528 151.984 54.528ZM182.72 55.296C182.656 55.296 182.464 55.264 182.144 55.2C181.856 55.136 181.568 55.056 181.28 54.96C181.024 54.864 180.88 54.752 180.848 54.624C180.784 54.016 180.944 53.152 181.328 52.032C181.712 50.912 182.224 49.664 182.864 48.288C183.536 46.88 184.224 45.504 184.928 44.16C184.8 44.16 184.656 44.16 184.496 44.16C184.368 44.128 184.224 44.112 184.064 44.112C183.68 44.048 183.488 43.872 183.488 43.584C183.488 43.424 183.664 43.344 184.016 43.344C184.272 43.344 184.496 43.36 184.688 43.392C184.88 43.392 185.088 43.392 185.312 43.392C185.952 42.176 186.544 41.088 187.088 40.128C187.632 39.136 188.016 38.384 188.24 37.872C188.432 37.52 188.56 37.232 188.624 37.008C188.688 36.752 188.72 36.56 188.72 36.432C188.72 36.24 188.688 36.08 188.624 35.952C188.688 35.568 188.912 35.056 189.296 34.416C189.712 33.776 190.224 33.136 190.832 32.496C191.44 31.856 192.096 31.328 192.8 30.912C193.504 30.464 194.16 30.24 194.768 30.24C194.96 30.24 195.248 30.304 195.632 30.432C196.048 30.528 196.448 30.688 196.832 30.912C197.216 31.136 197.456 31.456 197.552 31.872C197.584 31.936 197.6 32.032 197.6 32.16C197.6 32.256 197.552 32.304 197.456 32.304C197.392 32.304 197.296 32.288 197.168 32.256C197.072 32.192 196.992 32.16 196.928 32.16C196.224 32.16 195.456 32.496 194.624 33.168C193.824 33.808 192.992 34.672 192.128 35.76C191.264 36.848 190.4 38.064 189.536 39.408C188.704 40.72 187.904 42.048 187.136 43.392C188.736 43.328 190.432 43.136 192.224 42.816C194.016 42.464 195.792 42 197.552 41.424C199.312 40.848 200.944 40.144 202.448 39.312C203.952 38.48 205.216 37.536 206.24 36.48C207.36 35.296 207.92 34.08 207.92 32.832C207.92 31.904 207.568 31.04 206.864 30.24C206.16 29.44 205.056 28.832 203.552 28.416C202.656 28.16 201.632 27.968 200.48 27.84C199.36 27.712 198.144 27.648 196.832 27.648C194.784 27.648 192.672 27.824 190.496 28.176C188.352 28.528 186.336 29.072 184.448 29.808C182.56 30.512 180.976 31.408 179.696 32.496C178.416 33.584 177.648 34.88 177.392 36.384C177.296 37.152 177.44 37.76 177.824 38.208C178.208 38.656 178.672 39.008 179.216 39.264C179.792 39.488 180.24 39.696 180.56 39.888C180.784 40.08 180.896 40.24 180.896 40.368C180.896 40.592 180.688 40.672 180.272 40.608C179.824 40.512 179.264 40.288 178.592 39.936C177.952 39.584 177.376 39.104 176.864 38.496C176.384 37.856 176.144 37.12 176.144 36.288C176.144 36.16 176.144 36.032 176.144 35.904C176.176 35.776 176.208 35.648 176.24 35.52C176.24 35.488 176.224 35.392 176.192 35.232C176.192 35.04 176.192 34.88 176.192 34.752C176.384 33.76 176.864 32.832 177.632 31.968C178.432 31.072 179.328 30.288 180.32 29.616C181.344 28.912 182.288 28.352 183.152 27.936C184.656 27.2 186.464 26.624 188.576 26.208C190.688 25.76 192.896 25.536 195.2 25.536C196.608 25.536 198 25.632 199.376 25.824C200.784 26.016 202.144 26.32 203.456 26.736C205.28 27.344 206.688 28.288 207.68 29.568C208.704 30.816 209.168 32.128 209.072 33.504C208.976 34.816 208.512 36 207.68 37.056C206.88 38.112 205.84 39.04 204.56 39.84C203.312 40.608 201.92 41.28 200.384 41.856C198.88 42.4 197.36 42.848 195.824 43.2C194.352 43.52 192.784 43.76 191.12 43.92C189.488 44.08 188.016 44.176 186.704 44.208C185.936 45.584 185.248 46.88 184.64 48.096C184.064 49.312 183.632 50.288 183.344 51.024C183.088 51.728 182.96 52.224 182.96 52.512C182.96 52.96 183.136 53.184 183.488 53.184C183.936 53.184 184.416 52.88 184.928 52.272C185.28 51.856 185.6 51.472 185.888 51.12C186.208 50.736 186.48 50.576 186.704 50.64C186.736 50.672 186.752 50.72 186.752 50.784C186.752 50.944 186.64 51.168 186.416 51.456C186.192 51.712 186.064 51.856 186.032 51.888C185.808 52.208 185.504 52.64 185.12 53.184C184.768 53.728 184.384 54.208 183.968 54.624C183.584 55.072 183.168 55.296 182.72 55.296ZM213.157 54.576C212.613 54.576 212.133 54.448 211.717 54.192C211.301 53.968 211.013 53.52 210.853 52.848C210.757 52.496 210.709 52.144 210.709 51.792C210.709 50.832 210.949 49.904 211.429 49.008C211.941 48.08 212.533 47.232 213.205 46.464C213.877 45.664 214.453 44.992 214.933 44.448C215.189 44.192 215.477 43.856 215.797 43.44C216.149 43.024 216.325 42.608 216.325 42.192C216.325 41.936 216.197 41.696 215.941 41.472C215.685 41.216 215.221 41.04 214.549 40.944C214.165 40.88 213.797 40.832 213.445 40.8C213.125 40.736 212.789 40.704 212.437 40.704C211.541 41.92 210.661 43.152 209.797 44.4C208.965 45.616 208.069 46.816 207.109 48C206.885 48.224 206.693 48.336 206.533 48.336C206.341 48.336 206.245 48.24 206.245 48.048C206.245 47.856 206.341 47.664 206.533 47.472C208.261 45.36 209.749 43.104 210.997 40.704C210.837 40.704 210.597 40.704 210.277 40.704C209.957 40.672 209.701 40.64 209.509 40.608C209.285 40.544 209.109 40.448 208.981 40.32C208.853 40.192 208.789 40.064 208.789 39.936C208.789 39.744 208.869 39.632 209.029 39.6C209.445 39.472 209.893 39.28 210.373 39.024C210.853 38.768 211.301 38.432 211.717 38.016C212.165 37.568 212.581 37.104 212.965 36.624C213.349 36.112 213.653 35.728 213.877 35.472C214.101 35.312 214.341 35.232 214.597 35.232C214.757 35.232 214.901 35.28 215.029 35.376C215.189 35.472 215.269 35.616 215.269 35.808C215.269 36.032 215.173 36.32 214.981 36.672C214.693 37.12 214.373 37.616 214.021 38.16C213.701 38.704 213.397 39.2 213.109 39.648C213.685 39.68 214.261 39.712 214.837 39.744C215.413 39.776 216.005 39.792 216.613 39.792C216.933 39.792 217.237 39.792 217.525 39.792C217.845 39.76 218.165 39.744 218.485 39.744C219.445 39.744 219.925 39.984 219.925 40.464C219.925 40.784 219.749 41.184 219.397 41.664C219.077 42.112 218.677 42.608 218.197 43.152C217.109 44.4 216.181 45.712 215.413 47.088C214.645 48.464 214.133 49.52 213.877 50.256C213.621 51.024 213.493 51.6 213.493 51.984C213.493 52.752 213.797 53.136 214.405 53.136C214.949 53.136 215.605 52.864 216.373 52.32C217.173 51.776 217.989 51.12 218.821 50.352C219.653 49.552 220.405 48.784 221.077 48.048C221.749 47.28 222.229 46.704 222.517 46.32C222.581 46.224 222.677 46.176 222.805 46.176C222.933 46.176 223.045 46.24 223.141 46.368C223.237 46.464 223.237 46.592 223.141 46.752C222.789 47.296 222.277 47.984 221.605 48.816C220.933 49.616 220.181 50.416 219.349 51.216C218.517 52.016 217.701 52.704 216.901 53.28C216.485 53.6 215.909 53.888 215.173 54.144C214.469 54.432 213.797 54.576 213.157 54.576ZM226.138 54.528C225.242 54.528 224.458 54.32 223.786 53.904C222.666 53.232 222.106 52.016 222.106 50.256C222.106 49.52 222.234 48.672 222.49 47.712C222.714 46.912 223.114 46.048 223.69 45.12C224.266 44.16 224.938 43.248 225.706 42.384C226.506 41.52 227.37 40.816 228.298 40.272C229.226 39.728 230.154 39.456 231.082 39.456C231.466 39.456 231.802 39.504 232.09 39.6C232.474 39.728 232.794 39.968 233.05 40.32C233.338 40.64 233.482 41.056 233.482 41.568C233.482 42.112 233.338 42.416 233.05 42.48C232.794 42.544 232.666 42.48 232.666 42.288C232.666 42.224 232.666 42.16 232.666 42.096C232.698 42.032 232.714 41.984 232.714 41.952C232.714 41.696 232.634 41.472 232.474 41.28C232.346 41.056 232.09 40.944 231.706 40.944C231.194 40.944 230.554 41.216 229.786 41.76C229.05 42.304 228.282 43.04 227.482 43.968C226.714 44.864 226.026 45.856 225.418 46.944C224.842 48.032 224.458 49.12 224.266 50.208C224.234 50.368 224.202 50.528 224.17 50.688C224.17 50.816 224.17 50.96 224.17 51.12C224.17 51.856 224.33 52.48 224.65 52.992C225.002 53.472 225.546 53.712 226.282 53.712C227.178 53.712 228.042 53.376 228.874 52.704C229.706 52 230.442 51.168 231.082 50.208C231.754 49.248 232.25 48.4 232.57 47.664C232.826 47.088 233.002 46.592 233.098 46.176C233.194 45.76 233.242 45.408 233.242 45.12C233.242 44.864 233.21 44.64 233.146 44.448C233.114 44.256 233.066 44.096 233.002 43.968C232.938 43.776 232.906 43.632 232.906 43.536C232.906 43.28 233.002 43.072 233.194 42.912C233.418 42.752 233.642 42.672 233.866 42.672C234.058 42.672 234.266 42.736 234.49 42.864C234.746 42.928 235.098 42.976 235.546 43.008C235.994 43.04 236.474 43.056 236.986 43.056C237.53 43.056 238.074 43.04 238.618 43.008C239.194 42.976 239.69 42.912 240.106 42.816C240.17 42.784 240.266 42.768 240.394 42.768C240.618 42.768 240.73 42.832 240.73 42.96C240.73 43.088 240.618 43.2 240.394 43.296C239.274 43.808 238.266 44.08 237.37 44.112C236.506 44.144 235.754 44.16 235.114 44.16C235.178 44.96 235.002 45.824 234.586 46.752C234.17 47.648 233.738 48.448 233.29 49.152C232.746 49.952 232.122 50.768 231.418 51.6C230.714 52.432 229.93 53.136 229.066 53.712C228.202 54.256 227.226 54.528 226.138 54.528ZM234.375 70.32C234.087 70.32 233.943 70.224 233.943 70.032C233.943 69.872 233.975 69.728 234.039 69.6C234.167 69.376 234.455 68.72 234.903 67.632C235.351 66.576 235.911 65.216 236.583 63.552C237.223 61.92 237.927 60.144 238.695 58.224C239.463 56.336 240.215 54.464 240.951 52.608C241.687 50.72 242.359 49.008 242.967 47.472C242.391 47.568 241.879 47.632 241.431 47.664C240.983 47.696 240.663 47.712 240.471 47.712C240.183 47.712 239.895 47.616 239.607 47.424C239.319 47.232 239.175 46.976 239.175 46.656C239.175 46.368 239.367 46.128 239.751 45.936C240.135 45.712 240.551 45.552 240.999 45.456C241.479 45.328 241.831 45.264 242.055 45.264C242.407 45.264 242.663 45.392 242.823 45.648C243.015 45.904 243.223 46.032 243.447 46.032H243.543C243.895 45.136 244.183 44.4 244.407 43.824C244.663 43.216 244.823 42.784 244.887 42.528C245.143 41.856 245.495 40.992 245.943 39.936C246.391 38.88 246.887 37.76 247.431 36.576C247.975 35.36 248.535 34.192 249.111 33.072C249.719 31.92 250.279 30.928 250.791 30.096C251.271 29.36 251.831 28.624 252.471 27.888C253.143 27.12 253.863 26.496 254.631 26.016C255.431 25.504 256.279 25.248 257.175 25.248C257.559 25.248 257.927 25.296 258.279 25.392C258.631 25.456 258.967 25.568 259.287 25.728C260.247 26.272 260.727 27.056 260.727 28.08C260.727 28.496 260.647 28.96 260.487 29.472C260.359 29.952 260.167 30.464 259.911 31.008C259.495 31.936 258.807 33.04 257.847 34.32C256.919 35.6 255.831 36.928 254.583 38.304C253.367 39.68 252.103 41.008 250.791 42.288C249.479 43.568 248.215 44.688 246.999 45.648C247.831 45.584 248.679 45.52 249.543 45.456C250.407 45.36 251.271 45.312 252.135 45.312C252.359 45.312 252.583 45.344 252.807 45.408C253.063 45.44 253.191 45.504 253.191 45.6C253.191 45.664 253.111 45.744 252.951 45.84C252.823 45.904 252.551 46 252.135 46.128C251.879 46.192 251.367 46.304 250.599 46.464C249.831 46.592 248.935 46.72 247.911 46.848C246.919 46.976 245.927 47.104 244.935 47.232C244.487 48.384 243.959 49.76 243.351 51.36C242.775 52.928 242.183 54.512 241.575 56.112C240.999 57.744 240.471 59.2 239.991 60.48C239.607 61.6 239.367 62.416 239.271 62.928C239.175 63.44 239.127 63.824 239.127 64.08V64.416C239.127 64.544 239.111 64.672 239.079 64.8C239.079 64.928 239.031 65.104 238.935 65.328C238.359 66.8 237.975 67.792 237.783 68.304C237.591 68.848 237.319 69.232 236.967 69.456C236.711 69.584 236.311 69.76 235.767 69.984C235.223 70.208 234.759 70.32 234.375 70.32ZM245.607 45.744C246.791 44.848 248.007 43.76 249.255 42.48C250.503 41.2 251.719 39.84 252.903 38.4C254.087 36.928 255.159 35.488 256.119 34.08C257.111 32.672 257.927 31.424 258.567 30.336C259.111 29.44 259.383 28.592 259.383 27.792C259.383 26.928 259.079 26.496 258.471 26.496C257.959 26.496 257.351 26.784 256.647 27.36C256.039 27.808 255.303 28.56 254.439 29.616C253.607 30.64 252.775 31.792 251.943 33.072C251.143 34.32 250.439 35.504 249.831 36.624C249.127 37.968 248.487 39.264 247.911 40.512C247.335 41.728 246.871 42.752 246.519 43.584C246.167 44.384 245.959 44.864 245.895 45.024C245.799 45.216 245.703 45.456 245.607 45.744ZM261.015 37.296C260.599 37.296 260.151 37.264 259.671 37.2C259.223 37.104 258.999 36.8 258.999 36.288C258.999 36.192 259.207 35.968 259.623 35.616C260.071 35.264 260.519 34.912 260.967 34.56C261.447 34.176 261.735 33.952 261.831 33.888C262.407 33.44 262.759 33.216 262.887 33.216C263.079 33.216 263.079 33.424 262.887 33.84C262.727 34.256 262.647 34.624 262.647 34.944C262.647 35.104 262.535 35.376 262.311 35.76C262.119 36.144 261.895 36.496 261.639 36.816C261.383 37.136 261.175 37.296 261.015 37.296ZM255.735 54.48C255.191 54.48 254.679 54.352 254.199 54.096C253.751 53.84 253.415 53.36 253.191 52.656C253.159 52.56 253.127 52.448 253.095 52.32C253.095 52.192 253.095 52.064 253.095 51.936C253.095 51.296 253.239 50.512 253.527 49.584C253.847 48.656 254.215 47.744 254.631 46.848C254.407 47.104 254.167 47.424 253.911 47.808C253.655 48.16 253.271 48.624 252.759 49.2C252.631 49.328 252.503 49.392 252.375 49.392C252.151 49.392 252.039 49.264 252.039 49.008C252.039 48.816 252.103 48.656 252.231 48.528C253.063 47.472 253.799 46.528 254.439 45.696C255.079 44.864 255.591 44.16 255.975 43.584C255.911 43.52 255.879 43.456 255.879 43.392C255.879 43.264 255.927 43.136 256.023 43.008C256.279 42.24 256.535 41.6 256.791 41.088C257.047 40.544 257.335 40.24 257.655 40.176C257.719 40.176 257.783 40.176 257.847 40.176C257.911 40.144 257.975 40.128 258.039 40.128C258.391 40.128 258.711 40.208 258.999 40.368C259.287 40.528 259.431 40.768 259.431 41.088C259.431 41.376 259.319 41.728 259.095 42.144C258.903 42.56 258.679 43.072 258.423 43.68C257.687 45.152 257.031 46.496 256.455 47.712C255.911 48.896 255.591 49.872 255.495 50.64C255.463 50.768 255.447 50.896 255.447 51.024C255.447 51.12 255.447 51.232 255.447 51.36C255.447 52.64 255.895 53.28 256.791 53.28C257.271 53.28 257.911 52.992 258.711 52.416C259.511 51.84 260.327 51.152 261.159 50.352C261.991 49.552 262.743 48.784 263.415 48.048C264.087 47.28 264.567 46.704 264.855 46.32C264.951 46.224 265.047 46.176 265.143 46.176C265.271 46.176 265.367 46.224 265.431 46.32C265.527 46.416 265.543 46.544 265.479 46.704C265.191 47.248 264.695 47.936 263.991 48.768C263.319 49.568 262.551 50.384 261.687 51.216C260.855 52.016 260.039 52.704 259.239 53.28C258.823 53.6 258.295 53.872 257.655 54.096C257.015 54.352 256.375 54.48 255.735 54.48ZM265.226 56.4C264.874 56.4 264.522 56.352 264.17 56.256C263.818 56.16 263.562 55.968 263.402 55.68C263.274 55.424 263.29 55.104 263.45 54.72C263.61 54.368 263.834 54.048 264.122 53.76C264.378 53.504 264.698 53.248 265.082 52.992C265.498 52.736 265.93 52.528 266.378 52.368H266.474C266.634 52.368 266.714 52.432 266.714 52.56C266.714 52.656 266.65 52.752 266.522 52.848C265.946 53.136 265.498 53.488 265.178 53.904C264.954 54.16 264.842 54.432 264.842 54.72C264.842 55.232 265.146 55.488 265.754 55.488C266.426 55.488 267.146 55.28 267.914 54.864C268.714 54.48 269.466 53.968 270.17 53.328C270.906 52.656 271.498 51.952 271.946 51.216C272.394 50.48 272.618 49.776 272.618 49.104C272.618 48.656 272.378 48.256 271.898 47.904C271.418 47.52 270.89 47.184 270.314 46.896C269.738 46.576 269.306 46.32 269.018 46.128C268.666 45.872 268.346 45.616 268.058 45.36C267.77 45.072 267.546 44.768 267.386 44.448C267.13 44.896 266.794 45.44 266.378 46.08C265.994 46.688 265.53 47.328 264.986 48C264.794 48.192 264.602 48.288 264.41 48.288C264.218 48.288 264.122 48.208 264.122 48.048C264.122 47.952 264.202 47.792 264.362 47.568C265.226 46.544 265.866 45.6 266.282 44.736C266.698 43.872 266.986 43.216 267.146 42.768C267.274 41.84 267.706 40.96 268.442 40.128C269.178 39.296 270.074 38.576 271.13 37.968C272.186 37.328 273.258 36.832 274.346 36.48C275.466 36.128 276.458 35.952 277.322 35.952C278.186 35.952 278.954 36.112 279.626 36.432C280.298 36.752 280.634 37.264 280.634 37.968C280.634 38.352 280.522 38.768 280.298 39.216C280.01 39.824 279.53 40.368 278.858 40.848C278.826 40.88 278.778 40.896 278.714 40.896C278.458 40.896 278.33 40.784 278.33 40.56C278.33 40.4 278.41 40.24 278.57 40.08C278.826 39.856 279.034 39.584 279.194 39.264C279.354 38.944 279.434 38.64 279.434 38.352C279.434 37.776 279.098 37.488 278.426 37.488C277.946 37.488 277.386 37.584 276.746 37.776C276.106 37.936 275.482 38.144 274.874 38.4C274.298 38.624 273.818 38.832 273.434 39.024C272.634 39.408 271.898 39.888 271.226 40.464C270.554 41.008 269.914 41.696 269.306 42.528C268.89 43.072 268.682 43.584 268.682 44.064C268.682 44.64 269.066 45.168 269.834 45.648C270.634 46.096 271.418 46.528 272.186 46.944C272.986 47.36 273.658 47.808 274.202 48.288C274.746 48.768 275.018 49.344 275.018 50.016C275.018 50.752 274.554 51.632 273.626 52.656C273.05 53.296 272.266 53.904 271.274 54.48C270.314 55.056 269.29 55.52 268.202 55.872C267.114 56.224 266.122 56.4 265.226 56.4ZM279.909 56.4C279.557 56.4 279.205 56.352 278.853 56.256C278.501 56.16 278.245 55.968 278.085 55.68C277.957 55.424 277.973 55.104 278.133 54.72C278.293 54.368 278.517 54.048 278.805 53.76C279.061 53.504 279.381 53.248 279.765 52.992C280.181 52.736 280.613 52.528 281.061 52.368H281.157C281.317 52.368 281.397 52.432 281.397 52.56C281.397 52.656 281.333 52.752 281.205 52.848C280.629 53.136 280.181 53.488 279.861 53.904C279.637 54.16 279.525 54.432 279.525 54.72C279.525 55.232 279.829 55.488 280.437 55.488C281.109 55.488 281.829 55.28 282.597 54.864C283.397 54.48 284.149 53.968 284.853 53.328C285.589 52.656 286.181 51.952 286.629 51.216C287.077 50.48 287.301 49.776 287.301 49.104C287.301 48.656 287.061 48.256 286.581 47.904C286.101 47.52 285.573 47.184 284.997 46.896C284.421 46.576 283.989 46.32 283.701 46.128C283.349 45.872 283.029 45.616 282.741 45.36C282.453 45.072 282.229 44.768 282.069 44.448C281.813 44.896 281.477 45.44 281.061 46.08C280.677 46.688 280.213 47.328 279.669 48C279.477 48.192 279.285 48.288 279.093 48.288C278.901 48.288 278.805 48.208 278.805 48.048C278.805 47.952 278.885 47.792 279.045 47.568C279.909 46.544 280.549 45.6 280.965 44.736C281.381 43.872 281.669 43.216 281.829 42.768C281.957 41.84 282.389 40.96 283.125 40.128C283.861 39.296 284.757 38.576 285.813 37.968C286.869 37.328 287.941 36.832 289.029 36.48C290.149 36.128 291.141 35.952 292.005 35.952C292.869 35.952 293.637 36.112 294.309 36.432C294.981 36.752 295.317 37.264 295.317 37.968C295.317 38.352 295.205 38.768 294.981 39.216C294.693 39.824 294.213 40.368 293.541 40.848C293.509 40.88 293.461 40.896 293.397 40.896C293.141 40.896 293.013 40.784 293.013 40.56C293.013 40.4 293.093 40.24 293.253 40.08C293.509 39.856 293.717 39.584 293.877 39.264C294.037 38.944 294.117 38.64 294.117 38.352C294.117 37.776 293.781 37.488 293.109 37.488C292.629 37.488 292.069 37.584 291.429 37.776C290.789 37.936 290.165 38.144 289.557 38.4C288.981 38.624 288.501 38.832 288.117 39.024C287.317 39.408 286.581 39.888 285.909 40.464C285.237 41.008 284.597 41.696 283.989 42.528C283.573 43.072 283.365 43.584 283.365 44.064C283.365 44.64 283.749 45.168 284.517 45.648C285.317 46.096 286.101 46.528 286.869 46.944C287.669 47.36 288.341 47.808 288.885 48.288C289.429 48.768 289.701 49.344 289.701 50.016C289.701 50.752 289.237 51.632 288.309 52.656C287.733 53.296 286.949 53.904 285.957 54.48C284.997 55.056 283.973 55.52 282.885 55.872C281.797 56.224 280.805 56.4 279.909 56.4ZM301.648 37.296C301.232 37.296 300.8 37.264 300.352 37.2C299.904 37.104 299.68 36.8 299.68 36.288C299.68 36.192 299.888 35.968 300.304 35.616C300.752 35.264 301.2 34.912 301.648 34.56C302.128 34.176 302.416 33.952 302.512 33.888C303.056 33.44 303.392 33.216 303.52 33.216C303.68 33.216 303.68 33.424 303.52 33.84C303.36 34.256 303.28 34.624 303.28 34.944C303.28 35.104 303.184 35.376 302.992 35.76C302.8 36.144 302.576 36.496 302.32 36.816C302.064 37.136 301.84 37.296 301.648 37.296ZM296.416 54.48C295.84 54.48 295.312 54.352 294.832 54.096C294.384 53.84 294.048 53.36 293.824 52.656C293.792 52.56 293.76 52.464 293.728 52.368C293.728 52.272 293.728 52.16 293.728 52.032C293.728 51.392 293.872 50.592 294.16 49.632C294.448 48.672 294.8 47.744 295.216 46.848C295.024 47.104 294.8 47.424 294.544 47.808C294.288 48.16 293.92 48.624 293.44 49.2C293.312 49.328 293.168 49.392 293.008 49.392C292.784 49.392 292.672 49.264 292.672 49.008C292.672 48.816 292.736 48.656 292.864 48.528C293.696 47.472 294.432 46.528 295.072 45.696C295.744 44.864 296.24 44.16 296.56 43.584C296.56 43.552 296.544 43.536 296.512 43.536C296.512 43.504 296.512 43.472 296.512 43.44C296.512 43.344 296.56 43.2 296.656 43.008C296.912 42.24 297.168 41.6 297.424 41.088C297.712 40.544 298.016 40.24 298.336 40.176C298.4 40.176 298.464 40.176 298.528 40.176C298.592 40.144 298.656 40.128 298.72 40.128C299.072 40.128 299.392 40.208 299.68 40.368C299.968 40.528 300.112 40.768 300.112 41.088C300.112 41.376 300 41.728 299.776 42.144C299.584 42.56 299.328 43.072 299.008 43.68C298.304 45.152 297.664 46.496 297.088 47.712C296.544 48.896 296.24 49.872 296.176 50.64C296.144 50.768 296.128 50.896 296.128 51.024C296.128 51.12 296.128 51.232 296.128 51.36C296.128 52.64 296.544 53.28 297.376 53.28C297.888 53.28 298.544 53.008 299.344 52.464C300.144 51.888 300.96 51.2 301.792 50.4C302.624 49.568 303.376 48.784 304.048 48.048C304.752 47.28 305.232 46.704 305.488 46.32C305.584 46.224 305.68 46.176 305.776 46.176C305.904 46.176 306 46.224 306.064 46.32C306.16 46.416 306.176 46.544 306.112 46.704C305.824 47.248 305.328 47.936 304.624 48.768C303.952 49.568 303.184 50.384 302.32 51.216C301.488 52.016 300.672 52.704 299.872 53.28C299.456 53.6 298.928 53.872 298.288 54.096C297.68 54.352 297.056 54.48 296.416 54.48ZM309.117 54.528C308.221 54.528 307.437 54.32 306.765 53.904C305.645 53.232 305.085 52.016 305.085 50.256C305.085 49.52 305.213 48.672 305.469 47.712C305.693 46.912 306.093 46.048 306.669 45.12C307.245 44.16 307.917 43.248 308.685 42.384C309.485 41.52 310.349 40.816 311.277 40.272C312.205 39.728 313.133 39.456 314.061 39.456C314.445 39.456 314.781 39.504 315.069 39.6C315.453 39.728 315.773 39.968 316.029 40.32C316.317 40.64 316.461 41.056 316.461 41.568C316.461 42.112 316.317 42.416 316.029 42.48C315.773 42.544 315.645 42.48 315.645 42.288C315.645 42.224 315.645 42.16 315.645 42.096C315.677 42.032 315.693 41.984 315.693 41.952C315.693 41.696 315.613 41.472 315.453 41.28C315.325 41.056 315.069 40.944 314.685 40.944C314.173 40.944 313.533 41.216 312.765 41.76C312.029 42.304 311.261 43.04 310.461 43.968C309.693 44.864 309.005 45.856 308.397 46.944C307.821 48.032 307.437 49.12 307.245 50.208C307.213 50.368 307.181 50.528 307.149 50.688C307.149 50.816 307.149 50.96 307.149 51.12C307.149 51.856 307.309 52.48 307.629 52.992C307.981 53.472 308.525 53.712 309.261 53.712C310.157 53.712 311.021 53.376 311.853 52.704C312.685 52 313.421 51.168 314.061 50.208C314.733 49.248 315.229 48.4 315.549 47.664C315.805 47.088 315.981 46.592 316.077 46.176C316.173 45.76 316.221 45.408 316.221 45.12C316.221 44.864 316.189 44.64 316.125 44.448C316.093 44.256 316.045 44.096 315.981 43.968C315.917 43.776 315.885 43.632 315.885 43.536C315.885 43.28 315.981 43.072 316.173 42.912C316.397 42.752 316.621 42.672 316.845 42.672C317.037 42.672 317.245 42.736 317.469 42.864C317.725 42.928 318.077 42.976 318.525 43.008C318.973 43.04 319.453 43.056 319.965 43.056C320.509 43.056 321.053 43.04 321.597 43.008C322.173 42.976 322.669 42.912 323.085 42.816C323.149 42.784 323.245 42.768 323.373 42.768C323.597 42.768 323.709 42.832 323.709 42.96C323.709 43.088 323.597 43.2 323.373 43.296C322.253 43.808 321.245 44.08 320.349 44.112C319.485 44.144 318.733 44.16 318.093 44.16C318.157 44.96 317.981 45.824 317.565 46.752C317.149 47.648 316.717 48.448 316.269 49.152C315.725 49.952 315.101 50.768 314.397 51.6C313.693 52.432 312.909 53.136 312.045 53.712C311.181 54.256 310.205 54.528 309.117 54.528ZM320.665 54.624C320.441 54.624 320.377 54.512 320.473 54.288C320.569 54.096 320.745 53.664 321.001 52.992C321.257 52.288 321.545 51.456 321.865 50.496C322.217 49.536 322.569 48.544 322.921 47.52C323.273 46.496 323.593 45.536 323.881 44.64C324.201 43.744 324.457 43.04 324.649 42.528C324.713 42.336 324.777 42.064 324.841 41.712C324.905 41.328 325.033 40.992 325.225 40.704C325.449 40.384 325.817 40.224 326.329 40.224C327.289 40.224 327.769 40.448 327.769 40.896C327.769 41.056 327.689 41.328 327.529 41.712C327.145 42.576 326.729 43.568 326.281 44.688C325.833 45.808 325.433 46.864 325.081 47.856C324.729 48.848 324.457 49.616 324.265 50.16C324.585 49.712 325.097 49.072 325.801 48.24C326.537 47.408 327.353 46.512 328.249 45.552C329.145 44.592 330.073 43.664 331.033 42.768C332.025 41.872 332.937 41.152 333.769 40.608C334.633 40.032 335.369 39.744 335.977 39.744C336.745 39.744 337.129 40.16 337.129 40.992C337.129 41.28 337.049 41.712 336.889 42.288C336.601 43.088 336.233 43.872 335.785 44.64C335.337 45.376 334.937 46.16 334.585 46.992C333.977 48.496 333.625 49.712 333.529 50.64C333.497 50.768 333.481 50.896 333.481 51.024C333.481 51.12 333.481 51.232 333.481 51.36C333.481 52.64 333.913 53.28 334.777 53.28C335.257 53.28 335.897 52.992 336.697 52.416C337.497 51.84 338.313 51.152 339.145 50.352C340.009 49.552 340.777 48.784 341.449 48.048C342.121 47.28 342.585 46.704 342.841 46.32C342.937 46.224 343.033 46.176 343.129 46.176C343.257 46.176 343.353 46.224 343.417 46.32C343.513 46.416 343.529 46.544 343.465 46.704C343.177 47.248 342.681 47.936 341.977 48.768C341.305 49.568 340.553 50.384 339.721 51.216C338.889 52.016 338.073 52.704 337.273 53.28C336.793 53.6 336.201 53.888 335.497 54.144C334.793 54.4 334.089 54.512 333.385 54.48C332.489 54.384 331.849 54.08 331.465 53.568C331.081 53.024 330.889 52.384 330.889 51.648C330.889 50.784 331.049 49.872 331.369 48.912C331.721 47.92 332.105 46.992 332.521 46.128C332.937 45.264 333.273 44.608 333.529 44.16C333.785 43.648 333.913 43.248 333.913 42.96C333.913 42.704 333.801 42.576 333.577 42.576C333.353 42.576 333.017 42.72 332.569 43.008C332.121 43.296 331.513 43.792 330.745 44.496C330.041 45.104 329.289 45.904 328.489 46.896C327.689 47.856 326.905 48.848 326.137 49.872C325.401 50.896 324.745 51.776 324.169 52.512C323.625 53.248 323.241 53.68 323.017 53.808C322.857 53.904 322.489 54.064 321.913 54.288C321.369 54.512 320.953 54.624 320.665 54.624ZM355.959 54.48C355.415 54.48 354.903 54.352 354.423 54.096C353.975 53.84 353.639 53.36 353.415 52.656C353.319 52.368 353.271 51.968 353.271 51.456C353.271 50.752 353.367 49.968 353.559 49.104C353.751 48.24 353.959 47.504 354.183 46.896C354.023 46.96 353.719 47.248 353.271 47.76C352.855 48.24 352.327 48.832 351.687 49.536C351.079 50.208 350.391 50.896 349.623 51.6C348.887 52.272 348.119 52.832 347.319 53.28C346.519 53.728 345.735 53.952 344.967 53.952C344.455 53.952 343.911 53.808 343.335 53.52C342.759 53.2 342.295 52.8 341.943 52.32C341.463 51.68 341.223 51.024 341.223 50.352C341.223 49.488 341.511 48.592 342.087 47.664C342.695 46.736 343.463 45.84 344.391 44.976C345.351 44.08 346.359 43.28 347.415 42.576C348.503 41.84 349.527 41.232 350.487 40.752C351.479 40.24 352.279 39.904 352.887 39.744C353.527 39.552 354.247 39.456 355.047 39.456C355.495 39.456 355.959 39.52 356.439 39.648C356.919 39.744 357.319 39.92 357.639 40.176C357.895 40.304 358.103 40.48 358.263 40.704C358.423 40.928 358.503 41.168 358.503 41.424C358.503 41.68 358.391 41.76 358.167 41.664C357.911 41.28 357.559 41.04 357.111 40.944C356.695 40.816 356.263 40.752 355.815 40.752C354.535 40.752 353.127 41.168 351.591 42C350.055 42.832 348.679 43.808 347.463 44.928C347.079 45.248 346.551 45.808 345.879 46.608C345.239 47.376 344.647 48.224 344.103 49.152C343.559 50.08 343.287 50.928 343.287 51.696C343.287 52.112 343.399 52.48 343.623 52.8C343.751 53.024 343.959 53.136 344.247 53.136C344.695 53.136 345.287 52.896 346.023 52.416C346.791 51.936 347.575 51.36 348.375 50.688C349.175 49.984 349.895 49.312 350.535 48.672C351.207 48.032 351.687 47.568 351.975 47.28C352.135 47.12 352.439 46.8 352.887 46.32C353.367 45.808 353.879 45.264 354.423 44.688C354.967 44.112 355.447 43.616 355.863 43.2C356.311 42.784 356.599 42.576 356.727 42.576C356.887 42.576 357.143 42.624 357.495 42.72C357.879 42.784 358.199 42.896 358.455 43.056C358.711 43.216 358.759 43.424 358.599 43.68C357.767 44.896 357.095 46.176 356.583 47.52C356.103 48.832 355.815 49.872 355.719 50.64C355.687 50.768 355.671 50.896 355.671 51.024C355.671 51.12 355.671 51.232 355.671 51.36C355.671 52.64 356.119 53.28 357.015 53.28C357.495 53.28 358.135 52.992 358.935 52.416C359.735 51.84 360.551 51.152 361.383 50.352C362.215 49.552 362.967 48.784 363.639 48.048C364.343 47.28 364.823 46.704 365.079 46.32C365.175 46.224 365.271 46.176 365.367 46.176C365.495 46.176 365.607 46.24 365.703 46.368C365.799 46.464 365.799 46.592 365.703 46.752C365.351 47.328 364.839 48.016 364.167 48.816C363.495 49.616 362.743 50.416 361.911 51.216C361.079 52.016 360.263 52.704 359.463 53.28C359.047 53.6 358.519 53.872 357.879 54.096C357.239 54.352 356.599 54.48 355.959 54.48ZM367.869 54.48C366.525 54.48 365.581 54.144 365.037 53.472C364.525 52.8 364.269 51.968 364.269 50.976C364.269 50.048 364.477 48.88 364.893 47.472C365.341 46.064 365.917 44.544 366.621 42.912C367.325 41.28 368.077 39.664 368.877 38.064C369.709 36.432 370.525 34.944 371.325 33.6C372.157 32.224 372.877 31.12 373.485 30.288C374.093 29.488 374.749 28.688 375.453 27.888C376.157 27.088 376.941 26.416 377.805 25.872C378.669 25.328 379.645 25.056 380.733 25.056C381.469 25.056 382.093 25.264 382.605 25.68C383.149 26.064 383.421 26.656 383.421 27.456C383.421 27.776 383.357 28.144 383.229 28.56C383.133 28.976 382.957 29.408 382.701 29.856C380.749 33.248 378.413 36.384 375.693 39.264C373.005 42.144 370.157 44.816 367.149 47.28C367.021 47.76 366.893 48.192 366.765 48.576C366.669 48.96 366.589 49.264 366.525 49.488C366.493 49.648 366.477 49.824 366.477 50.016C366.477 50.176 366.477 50.336 366.477 50.496C366.477 51.264 366.605 51.936 366.861 52.512C367.117 53.088 367.549 53.376 368.157 53.376C368.733 53.376 369.437 53.104 370.269 52.56C371.133 51.984 371.997 51.296 372.861 50.496C373.725 49.664 374.509 48.864 375.213 48.096C375.917 47.328 376.413 46.736 376.701 46.32C376.797 46.224 376.893 46.176 376.989 46.176C377.117 46.176 377.213 46.24 377.277 46.368C377.373 46.496 377.373 46.656 377.277 46.848C376.957 47.392 376.445 48.064 375.741 48.864C375.037 49.664 374.253 50.48 373.389 51.312C372.525 52.112 371.693 52.816 370.893 53.424C369.901 54.128 368.893 54.48 367.869 54.48ZM367.821 45.36C369.037 44.528 370.301 43.456 371.613 42.144C372.925 40.8 374.205 39.344 375.453 37.776C376.733 36.208 377.885 34.656 378.909 33.12C379.965 31.584 380.813 30.192 381.453 28.944C381.645 28.592 381.773 28.288 381.837 28.032C381.933 27.744 381.981 27.488 381.981 27.264C381.981 26.656 381.725 26.352 381.213 26.352C380.765 26.352 380.205 26.592 379.533 27.072C377.805 28.416 376.205 30.144 374.733 32.256C373.261 34.336 371.949 36.528 370.797 38.832C369.645 41.136 368.653 43.312 367.821 45.36Z" fill="#FFEAE5"/>
</svg>
