<svg width="280" height="18" viewBox="0 0 280 18" fill="none" xmlns="http://www.w3.org/2000/svg">
<rect width="280" height="3" rx="1.5" fill="#3D1D1D"/>
<rect x="10" y="5" width="260" height="3" rx="1.5" fill="#3D1D1D"/>
<rect x="20" y="10" width="240" height="3" rx="1.5" fill="#3D1D1D"/>
<rect x="30" y="15" width="10" height="3" rx="1.5" fill="#3D1D1D"/>
<rect x="134" y="15" width="10" height="3" rx="1.5" fill="#3D1D1D"/>
<rect x="82" y="15" width="10" height="3" rx="1.5" fill="#3D1D1D"/>
<rect x="186" y="15" width="10" height="3" rx="1.5" fill="#3D1D1D"/>
<rect x="56" y="15" width="10" height="3" rx="1.5" fill="#3D1D1D"/>
<rect x="160" y="15" width="10" height="3" rx="1.5" fill="#3D1D1D"/>
<rect x="108" y="15" width="10" height="3" rx="1.5" fill="#3D1D1D"/>
<rect x="212" y="15" width="10" height="3" rx="1.5" fill="#3D1D1D"/>
<rect x="43" y="15" width="10" height="3" rx="1.5" fill="#3D1D1D"/>
<rect x="147" y="15" width="10" height="3" rx="1.5" fill="#3D1D1D"/>
<rect x="95" y="15" width="10" height="3" rx="1.5" fill="#3D1D1D"/>
<rect x="199" y="15" width="10" height="3" rx="1.5" fill="#3D1D1D"/>
<rect x="69" y="15" width="10" height="3" rx="1.5" fill="#3D1D1D"/>
<rect x="173" y="15" width="10" height="3" rx="1.5" fill="#3D1D1D"/>
<rect x="121" y="15" width="10" height="3" rx="1.5" fill="#3D1D1D"/>
<rect x="225" y="15" width="10" height="3" rx="1.5" fill="#3D1D1D"/>
<rect x="238" y="15" width="10" height="3" rx="1.5" fill="#3D1D1D"/>
</svg>
